<?xml version="1.0" encoding="UTF-8"?>
<!DOCTYPE svg PUBLIC "-//W3C//DTD SVG 1.1//EN" "http://www.w3.org/Graphics/SVG/1.1/DTD/svg11.dtd">
<svg xmlns="http://www.w3.org/2000/svg" version="1.1" width="1024px" height="1024px" style="shape-rendering:geometricPrecision; text-rendering:geometricPrecision; image-rendering:optimizeQuality; fill-rule:evenodd; clip-rule:evenodd" xmlns:xlink="http://www.w3.org/1999/xlink">
<g><path style="opacity:0.742" fill="#041029" d="M 823.5,723.5 C 798.91,703.082 774.743,682.082 751,660.5C 749.729,656.834 750.896,654.334 754.5,653C 759.167,652.667 763.833,652.333 768.5,652C 822.213,641.244 874.213,625.244 924.5,604C 928.835,601.509 931.835,598.009 933.5,593.5C 882.855,598.586 832.188,598.753 781.5,594C 764.834,591.834 748.167,590 731.5,588.5C 733.664,605.456 735.497,622.456 737,639.5C 738.49,658.806 736.823,677.806 732,696.5C 729.28,703.609 725.78,710.275 721.5,716.5C 728.671,720.92 736.004,725.086 743.5,729C 758.257,735.878 772.924,743.045 787.5,750.5C 786.833,750.833 786.167,751.167 785.5,751.5C 770.981,744.53 756.315,737.53 741.5,730.5C 734.315,726.654 727.148,722.654 720,718.5C 714.049,725.458 707.215,731.291 699.5,736C 681.501,746.499 662.834,755.666 643.5,763.5C 654.457,770.175 665.79,775.841 677.5,780.5C 686.642,785.779 696.308,790.112 706.5,793.5C 705.791,794.404 704.791,794.737 703.5,794.5C 681.612,785.931 660.445,775.931 640,764.5C 625.974,769.931 611.807,774.931 597.5,779.5C 612.763,781.137 627.096,785.637 640.5,793C 648.045,797.711 654.045,803.878 658.5,811.5C 657.833,811.5 657.167,811.5 656.5,811.5C 650.533,802.372 642.533,795.539 632.5,791C 619.909,786.102 606.909,782.936 593.5,781.5C 575.614,785.983 557.614,790.15 539.5,794C 504.652,798.679 470.319,796.345 436.5,787C 422.319,783.287 408.319,778.954 394.5,774C 368.142,770.839 345.809,778.672 327.5,797.5C 327.167,797.5 326.833,797.5 326.5,797.5C 336.562,784.324 349.895,776.158 366.5,773C 372.803,772.058 379.137,771.391 385.5,771C 365.601,763.884 346.601,754.884 328.5,744C 327.167,743.333 325.833,743.333 324.5,744C 319.239,749.953 313.239,754.953 306.5,759C 296.995,764.749 287.328,769.915 277.5,774.5C 275.973,774.573 274.973,773.906 274.5,772.5C 285.238,768.399 295.238,763.066 304.5,756.5C 312.083,753.193 318.417,748.193 323.5,741.5C 321.833,740.333 320.167,739.167 318.5,738C 319.056,737.617 319.389,737.117 319.5,736.5C 318.504,736.414 317.671,736.748 317,737.5C 303.425,727.927 291.091,716.927 280,704.5C 265.375,714.017 250.875,722.684 236.5,730.5C 230.591,732.777 224.591,735.11 218.5,737.5C 217.833,737.5 217.5,737.167 217.5,736.5C 238.741,727.04 259.074,715.707 278.5,702.5C 263.296,682.354 256.796,659.687 259,634.5C 265.119,599.143 276.619,565.643 293.5,534C 225.768,533.164 158.102,530.664 90.5,526.5C 90.4914,528.308 90.9914,529.975 92,531.5C 106.703,544.873 122.537,556.707 139.5,567C 171.751,587.126 205.418,604.626 240.5,619.5C 216.563,644.772 192.23,669.772 167.5,694.5C 165.915,693.998 165.415,692.998 166,691.5C 189.916,667.918 213.416,644.085 236.5,620C 185.389,599.126 138.056,572.126 94.5,539C 85.7146,531.9 85.3813,524.566 93.5,517C 98.1249,513.901 103.125,511.568 108.5,510C 137.266,503.761 165.933,497.095 194.5,490C 215.954,483.685 236.62,475.518 256.5,465.5C 237.846,434.386 223.346,401.386 213,366.5C 202.348,334.226 195.014,301.226 191,267.5C 187.681,253.821 192.848,248.988 206.5,253C 236.275,258.036 264.942,266.703 292.5,279C 321.767,291.111 349.767,305.611 376.5,322.5C 378.496,317.022 379.662,311.355 380,305.5C 382.451,271.527 383.118,237.527 382,203.5C 382.162,195.169 386.328,191.169 394.5,191.5C 399.444,191.537 404.111,192.703 408.5,195C 415.498,198.497 422.165,202.497 428.5,207C 471.827,241.484 513.827,277.65 554.5,315.5C 567.932,282.375 582.432,249.709 598,217.5C 600.5,213.667 603.667,210.5 607.5,208C 613.658,206.328 618.491,208.162 622,213.5C 628.419,225.676 633.752,238.342 638,251.5C 651.248,291.489 663.415,331.822 674.5,372.5C 709.118,359.763 744.785,351.263 781.5,347C 817.329,341.792 853.329,339.125 889.5,339C 891.869,339.536 893.869,340.703 895.5,342.5C 897.215,349.462 896.382,356.129 893,362.5C 859.83,417.171 822.497,468.838 781,517.5C 778.598,520.714 779.098,523.214 782.5,525C 832.076,544.288 881.076,564.954 929.5,587C 932.394,588.392 934.394,590.559 935.5,593.5C 933.93,598.155 931.263,601.988 927.5,605C 913.964,612.102 899.964,618.102 885.5,623C 841.909,637.979 797.576,649.646 752.5,658C 776.537,679.706 800.87,701.039 825.5,722C 824.956,722.717 824.289,723.217 823.5,723.5 Z"/></g>
<g><path style="opacity:1" fill="#210a41" d="M 617.5,371.5 C 613.399,360.631 608.232,350.298 602,340.5C 591.315,324.452 580.148,308.786 568.5,293.5C 568.389,292.883 568.056,292.383 567.5,292C 578.229,266.479 589.729,241.312 602,216.5C 604.016,214.316 606.183,212.316 608.5,210.5C 617.02,263.994 620.02,317.661 617.5,371.5 Z"/></g>
<g><path style="opacity:1" fill="#2c105a" d="M 661.5,338.5 C 661.822,340.722 661.155,342.556 659.5,344C 645.189,353.301 632.355,364.467 621,377.5C 620.502,374.518 620.335,371.518 620.5,368.5C 621.545,315.569 618.545,262.902 611.5,210.5C 615.147,210.622 617.981,212.288 620,215.5C 628.354,232.555 635.354,250.222 641,268.5C 648.142,291.734 654.976,315.068 661.5,338.5 Z"/></g>
<g><path style="opacity:1" fill="#210a41" d="M 499.5,438.5 C 488.351,408.202 473.518,379.868 455,353.5C 434.537,325.197 411.37,299.197 385.5,275.5C 385.552,250.483 385.385,225.483 385,200.5C 385.368,199.09 386.201,198.09 387.5,197.5C 451.426,261.034 494.093,336.867 515.5,425C 514.667,431.5 513.833,438 513,444.5C 509.889,439.675 507.055,434.675 504.5,429.5C 503.201,430.09 502.368,431.09 502,432.5C 501.667,435.5 501.333,438.5 501,441.5C 500.487,440.473 499.987,439.473 499.5,438.5 Z"/></g>
<g><path style="opacity:1" fill="#2c105a" d="M 390.5,193.5 C 398.407,193.614 405.74,195.781 412.5,200C 438.648,218.142 463.648,237.808 487.5,259C 510.632,279.13 533.465,299.63 556,320.5C 582.398,352.427 602.231,388.094 615.5,427.5C 628.29,412.876 641.957,399.043 656.5,386C 670.599,376.513 685.932,369.513 702.5,365C 761.493,350.883 821.326,342.716 882,340.5C 884.898,340.637 887.731,341.137 890.5,342C 891.91,342.368 892.91,343.201 893.5,344.5C 802.958,374.721 716.624,413.888 634.5,462C 620.886,460.037 607.219,459.203 593.5,459.5C 596.456,453.75 599.79,448.25 603.5,443C 597.699,443.982 592.533,446.482 588,450.5C 590.35,444.172 594.016,438.505 599,433.5C 599.591,432.517 599.257,431.85 598,431.5C 589.148,436.677 581.148,443.01 574,450.5C 576.838,442.944 580.671,435.777 585.5,429C 584.833,428.833 584.167,428.667 583.5,428.5C 572.328,434.592 561.995,441.925 552.5,450.5C 552.167,450.167 551.833,449.833 551.5,449.5C 555.322,440.523 559.655,431.857 564.5,423.5C 564.167,423.167 563.833,422.833 563.5,422.5C 559.703,424.467 556.036,426.634 552.5,429C 545.323,435.011 538.656,441.511 532.5,448.5C 528.123,439.302 525.123,429.635 523.5,419.5C 522.998,418.479 522.332,418.312 521.5,419C 520.333,420.167 519.167,421.333 518,422.5C 495.485,334.775 452.318,259.108 388.5,195.5C 389.243,194.818 389.909,194.151 390.5,193.5 Z"/></g>
<g><path style="opacity:1" fill="#2c105a" d="M 471.5,432.5 C 467.256,425.419 461.756,419.419 455,414.5C 454.667,420.5 454.333,426.5 454,432.5C 449.292,427.216 445.792,421.216 443.5,414.5C 442.998,413.479 442.332,413.312 441.5,414C 439.486,417.199 438.486,420.699 438.5,424.5C 439.903,433.914 441.403,443.247 443,452.5C 439,449.084 434.5,446.584 429.5,445C 425.997,440.665 422.33,436.499 418.5,432.5C 352.917,364.721 279.917,306.554 199.5,258C 198.5,257.167 197.5,256.333 196.5,255.5C 197.5,255.167 198.5,254.833 199.5,254.5C 259.536,266.79 315.869,288.623 368.5,320C 408.709,347.876 442.543,382.043 470,422.5C 472.72,426.607 474.887,430.94 476.5,435.5C 476.167,436.5 475.833,437.5 475.5,438.5C 474.143,436.435 472.81,434.435 471.5,432.5 Z"/></g>
<g><path style="opacity:1" fill="#3c127e" d="M 408.5,425.5 C 397.633,429.233 386.633,432.566 375.5,435.5C 377.108,438.382 378.441,441.382 379.5,444.5C 379,444.833 378.5,445.167 378,445.5C 365.937,442.262 353.771,441.762 341.5,444C 344.855,447.221 347.855,450.721 350.5,454.5C 335.022,454.699 320.022,457.365 305.5,462.5C 308.167,466.5 310.833,470.5 313.5,474.5C 309.666,475.992 305.666,476.659 301.5,476.5C 287.696,476.048 274.363,473.381 261.5,468.5C 244.211,440.247 230.378,410.247 220,378.5C 210.76,350.201 203.093,321.535 197,292.5C 195.147,280.544 194.147,268.544 194,256.5C 253.787,293.482 310.287,334.982 363.5,381C 379.033,395.367 394.033,410.2 408.5,425.5 Z"/></g>
<g><path style="opacity:1" fill="#0b0219" d="M 385.5,275.5 C 411.37,299.197 434.537,325.197 455,353.5C 473.518,379.868 488.351,408.202 499.5,438.5C 493.823,431.659 487.323,425.659 480,420.5C 478.289,422.956 476.956,425.623 476,428.5C 450.106,388.263 417.94,353.763 379.5,325C 381.254,318.645 382.421,312.145 383,305.5C 383.591,295.326 384.424,285.326 385.5,275.5 Z"/></g>
<g><path style="opacity:1" fill="#0b0219" d="M 568.5,293.5 C 580.148,308.786 591.315,324.452 602,340.5C 608.232,350.298 613.399,360.631 617.5,371.5C 617.53,387.211 616.697,402.878 615,418.5C 600.967,382.509 581.967,349.509 558,319.5C 558.489,314.687 559.822,310.021 562,305.5C 563.695,302.082 565.195,298.582 566.5,295C 566.836,293.97 567.503,293.47 568.5,293.5 Z"/></g>
<g><path style="opacity:1" fill="#210a41" d="M 661.5,338.5 C 664.338,349.128 667.504,359.795 671,370.5C 671.798,372.259 671.631,373.926 670.5,375.5C 661.631,379.765 653.631,385.265 646.5,392C 636.636,401.53 627.136,411.363 618,421.5C 618.575,403.686 619.408,386.019 620.5,368.5C 620.335,371.518 620.502,374.518 621,377.5C 632.355,364.467 645.189,353.301 659.5,344C 661.155,342.556 661.822,340.722 661.5,338.5 Z"/></g>
<g><path style="opacity:1" fill="#210a41" d="M 754.5,539.5 C 747.507,527.999 738.841,517.833 728.5,509C 713.605,497.634 698.105,487.134 682,477.5C 683.558,472.584 686.725,468.751 691.5,466C 690.833,465.333 690.167,464.667 689.5,464C 679.714,458.803 669.714,454.303 659.5,450.5C 733.797,408.024 811.797,373.691 893.5,347.5C 893.833,348.333 894.167,349.167 894.5,350C 890.272,360.622 885.106,370.788 879,380.5C 847.751,429.087 813.418,475.421 776,519.5C 769.264,526.739 762.098,533.406 754.5,539.5 Z"/></g>
<g><path style="opacity:1" fill="#f1ebcd" d="M 470.5,433.5 C 472.491,437.482 474.491,441.482 476.5,445.5C 477.185,437.997 478.518,430.663 480.5,423.5C 490.642,430.639 498.642,439.639 504.5,450.5C 503.474,445.014 503.474,439.348 504.5,433.5C 506.854,439.562 510.187,444.895 514.5,449.5C 514.56,450.043 514.893,450.376 515.5,450.5C 516.495,444.872 516.829,439.206 516.5,433.5C 516.98,428.874 518.813,424.874 522,421.5C 523.453,428.216 525.12,434.882 527,441.5C 528.074,445.319 529.907,448.652 532.5,451.5C 540.546,442.12 549.546,433.787 559.5,426.5C 559.833,426.833 560.167,427.167 560.5,427.5C 555.365,436.103 551.032,445.103 547.5,454.5C 548,454.833 548.5,455.167 549,455.5C 559.063,446.939 569.563,438.939 580.5,431.5C 580.833,431.667 581.167,431.833 581.5,432C 576.785,438.429 573.118,445.429 570.5,453C 570.833,453.833 571.167,454.667 571.5,455.5C 578.534,448.464 585.867,441.797 593.5,435.5C 592.334,438.426 590.5,441.426 588,444.5C 586.259,447.309 585.092,450.309 584.5,453.5C 589.398,451.547 594.064,449.381 598.5,447C 594.871,452.09 592.204,457.59 590.5,463.5C 603.205,462.001 615.871,462.168 628.5,464C 621.892,465.634 616.225,468.8 611.5,473.5C 612.333,473.833 613.167,474.167 614,474.5C 622.593,472.844 631.26,471.844 640,471.5C 644.661,471.312 649.161,471.979 653.5,473.5C 651.833,474.667 650.167,475.833 648.5,477C 691.621,499.742 718.454,534.909 729,582.5C 731.458,602.12 733.458,621.787 735,641.5C 736.56,661.226 734.56,680.559 729,699.5C 726.993,704.188 724.493,708.521 721.5,712.5C 692.309,724.022 661.975,728.356 630.5,725.5C 630.063,730.708 628.23,735.375 625,739.5C 616.941,748.112 607.441,754.612 596.5,759C 568.825,767.446 540.492,772.112 511.5,773C 468.327,774.881 425.327,773.048 382.5,767.5C 360.326,759.58 339.326,749.246 319.5,736.5C 302.152,724.748 287.319,710.414 275,693.5C 271.352,687.872 268.519,681.872 266.5,675.5C 264.695,643.523 276.028,617.356 300.5,597C 298.925,581.617 301.425,566.784 308,552.5C 319.254,526.99 331.754,502.324 345.5,478.5C 348.018,477.076 350.351,475.409 352.5,473.5C 348.984,471.242 345.318,469.242 341.5,467.5C 351.433,465.329 361.433,464.995 371.5,466.5C 372.932,466.267 373.432,465.6 373,464.5C 370.02,460.686 366.854,457.019 363.5,453.5C 364.167,453.167 364.833,452.833 365.5,452.5C 371.49,453.369 377.49,454.203 383.5,455C 386,455.375 388.333,456.208 390.5,457.5C 391.489,453.893 391.823,450.226 391.5,446.5C 399.514,446.338 406.68,448.671 413,453.5C 413.667,452.5 413.667,451.5 413,450.5C 411.023,447.688 408.856,445.022 406.5,442.5C 415.138,442.33 423.471,444.163 431.5,448C 436.5,450.833 441.5,453.667 446.5,456.5C 446.833,456.167 447.167,455.833 447.5,455.5C 441.959,443.395 440.126,430.728 442,417.5C 445.098,424.701 449.431,431.035 455,436.5C 456.196,430.581 456.862,424.581 457,418.5C 462.049,423.047 466.549,428.047 470.5,433.5 Z"/></g>
<g><path style="opacity:1" fill="#0b0219" d="M 408.5,425.5 C 411.5,427.833 414.167,430.5 416.5,433.5C 418.962,436.464 421.629,439.297 424.5,442C 418.125,440.621 411.625,439.454 405,438.5C 403.72,438.613 402.887,439.28 402.5,440.5C 403.803,442.937 405.47,445.104 407.5,447C 407.167,447.167 406.833,447.333 406.5,447.5C 400.689,445.144 394.689,443.977 388.5,444C 387.72,445.073 387.887,446.24 389,447.5C 389.667,449.833 389.667,452.167 389,454.5C 379.409,451.582 369.576,450.416 359.5,451C 359.167,451.333 358.833,451.667 358.5,452C 361.683,455.015 364.683,458.182 367.5,461.5C 356.7,462.424 346.034,464.09 335.5,466.5C 334.226,467.359 334.392,468.026 336,468.5C 340.629,469.4 344.795,471.234 348.5,474C 329.601,486.065 314.268,501.565 302.5,520.5C 300.629,520.141 299.129,519.141 298,517.5C 285.337,501.494 273.17,485.161 261.5,468.5C 274.363,473.381 287.696,476.048 301.5,476.5C 305.666,476.659 309.666,475.992 313.5,474.5C 310.833,470.5 308.167,466.5 305.5,462.5C 320.022,457.365 335.022,454.699 350.5,454.5C 347.855,450.721 344.855,447.221 341.5,444C 353.771,441.762 365.937,442.262 378,445.5C 378.5,445.167 379,444.833 379.5,444.5C 378.441,441.382 377.108,438.382 375.5,435.5C 386.633,432.566 397.633,429.233 408.5,425.5 Z"/></g>
<g><path style="opacity:0.988" fill="#a6a699" d="M 516.5,433.5 C 516.829,439.206 516.495,444.872 515.5,450.5C 514.893,450.376 514.56,450.043 514.5,449.5C 515.167,444.167 515.833,438.833 516.5,433.5 Z"/></g>
<g><path style="opacity:1" fill="#0e172b" d="M 471.5,432.5 C 470.833,432.5 470.5,432.833 470.5,433.5C 466.549,428.047 462.049,423.047 457,418.5C 456.862,424.581 456.196,430.581 455,436.5C 449.431,431.035 445.098,424.701 442,417.5C 440.126,430.728 441.959,443.395 447.5,455.5C 447.167,455.833 446.833,456.167 446.5,456.5C 441.5,453.667 436.5,450.833 431.5,448C 423.471,444.163 415.138,442.33 406.5,442.5C 408.856,445.022 411.023,447.688 413,450.5C 413.667,451.5 413.667,452.5 413,453.5C 406.68,448.671 399.514,446.338 391.5,446.5C 391.823,450.226 391.489,453.893 390.5,457.5C 388.333,456.208 386,455.375 383.5,455C 377.49,454.203 371.49,453.369 365.5,452.5C 364.833,452.833 364.167,453.167 363.5,453.5C 366.854,457.019 370.02,460.686 373,464.5C 373.432,465.6 372.932,466.267 371.5,466.5C 361.433,464.995 351.433,465.329 341.5,467.5C 345.318,469.242 348.984,471.242 352.5,473.5C 350.351,475.409 348.018,477.076 345.5,478.5C 328.43,490.569 314.096,505.236 302.5,522.5C 302.5,521.833 302.5,521.167 302.5,520.5C 314.268,501.565 329.601,486.065 348.5,474C 344.795,471.234 340.629,469.4 336,468.5C 334.392,468.026 334.226,467.359 335.5,466.5C 346.034,464.09 356.7,462.424 367.5,461.5C 364.683,458.182 361.683,455.015 358.5,452C 358.833,451.667 359.167,451.333 359.5,451C 369.576,450.416 379.409,451.582 389,454.5C 389.667,452.167 389.667,449.833 389,447.5C 387.887,446.24 387.72,445.073 388.5,444C 394.689,443.977 400.689,445.144 406.5,447.5C 406.833,447.333 407.167,447.167 407.5,447C 405.47,445.104 403.803,442.937 402.5,440.5C 402.887,439.28 403.72,438.613 405,438.5C 411.625,439.454 418.125,440.621 424.5,442C 421.629,439.297 418.962,436.464 416.5,433.5C 417.167,433.167 417.833,432.833 418.5,432.5C 422.33,436.499 425.997,440.665 429.5,445C 434.5,446.584 439,449.084 443,452.5C 441.403,443.247 439.903,433.914 438.5,424.5C 438.486,420.699 439.486,417.199 441.5,414C 442.332,413.312 442.998,413.479 443.5,414.5C 445.792,421.216 449.292,427.216 454,432.5C 454.333,426.5 454.667,420.5 455,414.5C 461.756,419.419 467.256,425.419 471.5,432.5 Z"/></g>
<g><path style="opacity:1" fill="#150530" d="M 659.5,450.5 C 669.714,454.303 679.714,458.803 689.5,464C 690.167,464.667 690.833,465.333 691.5,466C 686.725,468.751 683.558,472.584 682,477.5C 698.105,487.134 713.605,497.634 728.5,509C 738.841,517.833 747.507,527.999 754.5,539.5C 745.792,547.869 736.459,555.536 726.5,562.5C 712.33,524.836 687.663,496.336 652.5,477C 654.734,476.031 656.734,474.698 658.5,473C 652.54,470.144 646.207,468.977 639.5,469.5C 631.381,469.802 623.381,470.635 615.5,472C 621.696,468.238 628.362,465.572 635.5,464C 643.352,459.218 651.352,454.718 659.5,450.5 Z"/></g>
<g><path style="opacity:1" fill="#210a41" d="M 239.5,530.5 C 249.839,530.666 260.172,530.5 270.5,530C 260.799,517.437 251.966,504.27 244,490.5C 240.448,485.767 235.948,482.434 230.5,480.5C 238.107,477.033 245.774,473.533 253.5,470C 255.447,469.009 257.447,468.675 259.5,469C 272.015,487.852 285.682,505.852 300.5,523C 298.709,525.414 297.043,527.914 295.5,530.5C 276.671,531.828 258.004,531.828 239.5,530.5 Z"/></g>
<g><path style="opacity:1" fill="#fefefc" d="M 468.5,471.5 C 470.474,473.428 471.974,475.761 473,478.5C 477.135,488.1 478.469,498.1 477,508.5C 476.71,510.044 476.044,511.377 475,512.5C 468.489,498.988 458.822,488.321 446,480.5C 445.667,485.167 445.333,489.833 445,494.5C 444.163,496.844 442.829,498.844 441,500.5C 437.467,493.96 432.8,488.294 427,483.5C 427.858,486.151 428.358,488.985 428.5,492C 428.167,493.5 427.833,495 427.5,496.5C 425.772,490.244 423.438,484.244 420.5,478.5C 428.158,478.573 434.658,481.573 440,487.5C 440.996,482.771 440.496,478.271 438.5,474C 449.558,475.112 459.058,479.612 467,487.5C 467.977,482.207 468.477,476.874 468.5,471.5 Z"/></g>
<g><path style="opacity:1" fill="#2c0f67" d="M 230.5,480.5 C 235.948,482.434 240.448,485.767 244,490.5C 251.966,504.27 260.799,517.437 270.5,530C 260.172,530.5 249.839,530.666 239.5,530.5C 190.151,529.037 140.817,527.037 91.5,524.5C 91.393,522.097 92.393,520.264 94.5,519C 99.7505,516.472 105.084,514.139 110.5,512C 131.021,506.832 151.688,502.499 172.5,499C 192.153,493.755 211.486,487.588 230.5,480.5 Z"/></g>
<g><path style="opacity:1" fill="#fefefc" d="M 572.5,478.5 C 573.043,478.56 573.376,478.893 573.5,479.5C 570.76,489.224 570.926,498.891 574,508.5C 579.751,500.071 587.251,493.904 596.5,490C 598.833,489.333 601.167,489.333 603.5,490C 596.193,495.286 590.526,501.953 586.5,510C 591.993,508.44 597.66,507.773 603.5,508C 592.425,514.407 583.258,522.907 576,533.5C 575.333,529.833 575.333,526.167 576,522.5C 577.049,517.618 578.383,512.952 580,508.5C 574.224,515.478 570.557,523.478 569,532.5C 567.162,523.948 566.162,515.282 566,506.5C 562,509.167 558.667,512.5 556,516.5C 559.56,503.042 565.06,490.375 572.5,478.5 Z"/></g>
<g><path style="opacity:1" fill="#cbc3a1" d="M 345.5,478.5 C 331.754,502.324 319.254,526.99 308,552.5C 301.425,566.784 298.925,581.617 300.5,597C 276.028,617.356 264.695,643.523 266.5,675.5C 260.87,662.501 259.037,648.834 261,634.5C 268.055,594.486 281.888,557.153 302.5,522.5C 314.096,505.236 328.43,490.569 345.5,478.5 Z"/></g>
<g><path style="opacity:1" fill="#0b0219" d="M 808.5,538.5 C 791.077,556.547 772.41,573.214 752.5,588.5C 745.175,587.868 738.009,586.535 731,584.5C 730.231,578.589 729.064,572.756 727.5,567C 727.643,564.849 728.643,563.182 730.5,562C 746.849,550.327 762.015,537.16 776,522.5C 777.167,525 779,526.833 781.5,528C 790.563,531.409 799.563,534.909 808.5,538.5 Z"/></g>
<g><path style="opacity:0.997" fill="#210a41" d="M 217.5,736.5 C 199.364,724.374 182.697,710.374 167.5,694.5C 192.23,669.772 216.563,644.772 240.5,619.5C 205.418,604.626 171.751,587.126 139.5,567C 122.537,556.707 106.703,544.873 92,531.5C 90.9914,529.975 90.4914,528.308 90.5,526.5C 158.102,530.664 225.768,533.164 293.5,534C 276.619,565.643 265.119,599.143 259,634.5C 256.796,659.687 263.296,682.354 278.5,702.5C 259.074,715.707 238.741,727.04 217.5,736.5 Z"/></g>
<g><path style="opacity:1" fill="#2c0f67" d="M 808.5,538.5 C 849.83,554.336 890.497,571.836 930.5,591C 870.927,597.471 811.594,596.638 752.5,588.5C 772.41,573.214 791.077,556.547 808.5,538.5 Z"/></g>
<g><path style="opacity:0.997" fill="#2c105a" d="M 823.5,723.5 C 812.09,733.238 800.09,742.238 787.5,750.5C 772.924,743.045 758.257,735.878 743.5,729C 736.004,725.086 728.671,720.92 721.5,716.5C 725.78,710.275 729.28,703.609 732,696.5C 736.823,677.806 738.49,658.806 737,639.5C 735.497,622.456 733.664,605.456 731.5,588.5C 748.167,590 764.834,591.834 781.5,594C 832.188,598.753 882.855,598.586 933.5,593.5C 931.835,598.009 928.835,601.509 924.5,604C 874.213,625.244 822.213,641.244 768.5,652C 763.833,652.333 759.167,652.667 754.5,653C 750.896,654.334 749.729,656.834 751,660.5C 774.743,682.082 798.91,703.082 823.5,723.5 Z"/></g>
<g><path style="opacity:1" fill="#0f172b" d="M 700.5,631.5 C 700.5,635.833 700.5,640.167 700.5,644.5C 702.5,644.5 704.5,644.5 706.5,644.5C 719.469,646.308 725.802,653.808 725.5,667C 726.024,681.814 719.024,690.814 704.5,694C 675.946,695.697 650.613,687.531 628.5,669.5C 617.247,665.79 606.58,660.623 596.5,654C 591.003,649.84 588.67,644.34 589.5,637.5C 595.81,609.689 612.81,592.189 640.5,585C 673.393,583.714 693.393,599.214 700.5,631.5 Z"/></g>
<g><path style="opacity:1" fill="#fafafa" d="M 697.5,633.5 C 689.124,638.19 680.124,641.523 670.5,643.5C 669.287,643.253 668.62,642.586 668.5,641.5C 670.888,622.159 664.888,605.992 650.5,593C 659.719,593.438 668.052,596.438 675.5,602C 685.813,610.47 693.146,620.97 697.5,633.5 Z"/></g>
<g><path style="opacity:1" fill="#000001" d="M 643.5,586.5 C 668.646,586.239 685.979,597.739 695.5,621C 695.389,622.722 694.889,622.888 694,621.5C 685.861,605.356 673.027,595.189 655.5,591C 652.446,590.179 649.446,590.345 646.5,591.5C 663.807,606.455 669.973,625.122 665,647.5C 664.086,651.604 662.419,655.27 660,658.5C 650.66,660.391 641.494,662.891 632.5,666C 619.961,665.039 608.628,660.706 598.5,653C 592.23,648.291 590.064,642.124 592,634.5C 599.894,608.341 617.061,592.341 643.5,586.5 Z"/></g>
<g><path style="opacity:1" fill="#f2f2f2" d="M 631.5,606.5 C 638.391,605.063 642.724,607.73 644.5,614.5C 641.809,623.1 636.642,625.1 629,620.5C 625.357,615.067 626.19,610.4 631.5,606.5 Z"/></g>
<g><path style="opacity:1" fill="#cac3a1" d="M 463.5,614.5 C 471.595,625.885 473.428,638.219 469,651.5C 463.878,657.652 457.378,659.818 449.5,658C 446.059,655.946 442.392,654.446 438.5,653.5C 451.814,649.996 459.981,641.329 463,627.5C 463.499,623.179 463.666,618.846 463.5,614.5 Z"/></g>
<g><path style="opacity:1" fill="#e7b4f4" d="M 697.5,633.5 C 698.821,637.233 698.821,641.066 697.5,645C 686.291,649.844 674.958,653.844 663.5,657C 665.701,651.901 667.368,646.734 668.5,641.5C 668.62,642.586 669.287,643.253 670.5,643.5C 680.124,641.523 689.124,638.19 697.5,633.5 Z"/></g>
<g><path style="opacity:0.997" fill="#11172c" d="M 463.5,614.5 C 463.666,618.846 463.499,623.179 463,627.5C 459.981,641.329 451.814,649.996 438.5,653.5C 432.631,655.432 426.964,657.932 421.5,661C 387.394,682.527 350.06,691.86 309.5,689C 297.744,687.373 287.91,682.206 280,673.5C 272.53,650.258 280.363,634.425 303.5,626C 315.687,622.801 328.02,621.801 340.5,623C 333.092,614.295 332.592,605.128 339,595.5C 351.854,578.987 368.354,567.82 388.5,562C 406.025,559.081 421.692,563.081 435.5,574C 449.841,584.152 459.175,597.652 463.5,614.5 Z"/></g>
<g><path style="opacity:1" fill="#ca51a5" d="M 413.5,663.5 C 410.304,659.159 405.971,656.659 400.5,656C 395.032,655.149 389.532,654.649 384,654.5C 366.514,657.93 350.014,655.43 334.5,647C 327.596,644.921 320.596,643.254 313.5,642C 299.907,639.364 288.574,643.197 279.5,653.5C 281.295,644.754 285.962,637.92 293.5,633C 311.472,623.868 330.139,622.201 349.5,628C 377.179,638.336 405.512,646.336 434.5,652C 427.369,655.548 420.369,659.381 413.5,663.5 Z"/></g>
<g><path style="opacity:1" fill="#e4b1f2" d="M 338.5,601.5 C 341.206,607.046 345.206,611.546 350.5,615C 358.863,618.677 367.53,621.511 376.5,623.5C 377.563,627.755 379.23,631.755 381.5,635.5C 369.213,633.224 357.213,629.391 345.5,624C 340.568,621.314 337.735,617.148 337,611.5C 336.326,607.888 336.826,604.554 338.5,601.5 Z"/></g>
<g><path style="opacity:1" fill="#fbfbfc" d="M 376.5,623.5 C 367.53,621.511 358.863,618.677 350.5,615C 345.206,611.546 341.206,607.046 338.5,601.5C 340.158,597.328 342.825,593.828 346.5,591C 360.256,580.913 375.589,576.413 392.5,577.5C 382.039,591.081 376.706,606.414 376.5,623.5 Z"/></g>
<g><path style="opacity:1" fill="#000000" d="M 390.5,563.5 C 408.75,561.892 424.75,567.059 438.5,579C 449.382,587.94 456.882,599.107 461,612.5C 463.15,626.049 459.317,637.549 449.5,647C 444.894,650.033 439.894,651.033 434.5,650C 418.563,647.266 402.896,643.432 387.5,638.5C 383.532,635.916 381.032,632.249 380,627.5C 377.691,616.737 379.024,606.404 384,596.5C 388.134,589.228 391.968,581.895 395.5,574.5C 388.445,574.27 381.445,574.77 374.5,576C 366.851,578.174 359.517,580.841 352.5,584C 363.691,574.241 376.358,567.407 390.5,563.5 Z"/></g>
<g><path style="opacity:1" fill="#f4f4f4" d="M 414.5,582.5 C 423.036,582.2 426.87,586.2 426,594.5C 421.583,600.183 416.583,600.849 411,596.5C 408.236,590.691 409.403,586.025 414.5,582.5 Z"/></g>
<g><path style="opacity:1" fill="#f16ac1" d="M 413.5,663.5 C 376.931,684.781 337.931,691.281 296.5,683C 282.324,677.792 276.657,667.959 279.5,653.5C 288.574,643.197 299.907,639.364 313.5,642C 320.596,643.254 327.596,644.921 334.5,647C 350.014,655.43 366.514,657.93 384,654.5C 389.532,654.649 395.032,655.149 400.5,656C 405.971,656.659 410.304,659.159 413.5,663.5 Z"/></g>
<g><path style="opacity:1" fill="#a3a498" d="M 700.5,631.5 C 701.483,635.298 701.817,639.298 701.5,643.5C 703.415,643.216 705.081,643.549 706.5,644.5C 704.5,644.5 702.5,644.5 700.5,644.5C 700.5,640.167 700.5,635.833 700.5,631.5 Z"/></g>
<g><path style="opacity:1" fill="#cbc3a2" d="M 589.5,637.5 C 588.67,644.34 591.003,649.84 596.5,654C 606.58,660.623 617.247,665.79 628.5,669.5C 619.751,672.375 610.751,673.208 601.5,672C 591.009,670.514 586.009,664.514 586.5,654C 586.603,648.206 587.603,642.706 589.5,637.5 Z"/></g>
<g><path style="opacity:1" fill="#c951a4" d="M 718.5,652.5 C 712.099,653.867 706.765,657.034 702.5,662C 699.326,663.725 695.993,665.058 692.5,666C 681.809,667.113 671.142,668.447 660.5,670C 654.061,672.055 651.728,676.221 653.5,682.5C 645.674,679.333 638.507,675 632,669.5C 631.568,668.4 632.068,667.733 633.5,667.5C 644.36,664.201 655.36,661.368 666.5,659C 676.912,655.196 687.245,651.196 697.5,647C 703.724,645.939 709.724,646.606 715.5,649C 716.71,650.039 717.71,651.206 718.5,652.5 Z"/></g>
<g><path style="opacity:1" fill="#f06ac0" d="M 718.5,652.5 C 721.028,654.89 722.528,657.89 723,661.5C 726.211,678.61 719.377,688.776 702.5,692C 685.203,693.733 668.87,690.566 653.5,682.5C 651.728,676.221 654.061,672.055 660.5,670C 671.142,668.447 681.809,667.113 692.5,666C 695.993,665.058 699.326,663.725 702.5,662C 706.765,657.034 712.099,653.867 718.5,652.5 Z"/></g>
<g><path style="opacity:1" fill="#1c1c32" d="M 513.5,637.5 C 530.078,635.867 546.078,638.034 561.5,644C 568.667,647.167 573.833,652.333 577,659.5C 577.125,669.706 572.291,676.206 562.5,679C 539.817,679.76 517.151,679.426 494.5,678C 481.928,672.55 478.762,663.716 485,651.5C 488.536,646.98 493.036,643.814 498.5,642C 503.629,640.494 508.629,638.994 513.5,637.5 Z"/></g>
<g><path style="opacity:1" fill="#c23e99" d="M 551.5,665.5 C 555.273,665.263 558.94,665.763 562.5,667C 565.539,669.449 566.539,672.449 565.5,676C 559.577,677.304 553.577,677.804 547.5,677.5C 547.336,674.813 547.503,672.146 548,669.5C 548.69,667.65 549.856,666.316 551.5,665.5 Z"/></g>
<g><path style="opacity:1" fill="#f06ac1" d="M 574.5,660.5 C 575.093,665.896 573.259,670.23 569,673.5C 564.932,663.814 558.099,660.981 548.5,665C 545.117,668.482 543.784,672.649 544.5,677.5C 536.472,677.831 528.472,677.498 520.5,676.5C 524.773,668.258 522.773,662.425 514.5,659C 506.326,656.689 499.826,658.856 495,665.5C 494.034,669.118 494.534,672.451 496.5,675.5C 492.685,675.752 489.685,674.085 487.5,670.5C 486.566,662.577 489.232,656.077 495.5,651C 501.384,647.483 507.717,645.15 514.5,644C 528.67,642.75 542.67,643.75 556.5,647C 563.86,649.83 569.86,654.33 574.5,660.5 Z"/></g>
<g><path style="opacity:1" fill="#c03e98" d="M 503.5,660.5 C 508.821,659.979 513.821,660.979 518.5,663.5C 520.975,667.4 520.975,671.4 518.5,675.5C 512.193,676.664 505.859,676.831 499.5,676C 496.806,673.347 495.973,670.18 497,666.5C 498.914,664.144 501.081,662.144 503.5,660.5 Z"/></g>
<g><path style="opacity:1" fill="#e3aeee" d="M 574.5,660.5 C 569.86,654.33 563.86,649.83 556.5,647C 542.67,643.75 528.67,642.75 514.5,644C 507.717,645.15 501.384,647.483 495.5,651C 489.232,656.077 486.566,662.577 487.5,670.5C 486.21,669.942 485.377,668.942 485,667.5C 484.121,662.713 484.455,658.047 486,653.5C 494.336,645.086 504.502,640.586 516.5,640C 529.798,638.585 542.798,639.918 555.5,644C 560.28,645.556 564.613,647.889 568.5,651C 571.147,653.801 573.147,656.968 574.5,660.5 Z"/></g>
<g><path style="opacity:1" fill="#0b0219" d="M 319.5,736.5 C 319.389,737.117 319.056,737.617 318.5,738C 320.167,739.167 321.833,740.333 323.5,741.5C 318.417,748.193 312.083,753.193 304.5,756.5C 292.725,751.904 282.725,744.738 274.5,735C 267.557,730.613 259.891,728.78 251.5,729.5C 246.48,729.668 241.48,730.001 236.5,730.5C 250.875,722.684 265.375,714.017 280,704.5C 291.091,716.927 303.425,727.927 317,737.5C 317.671,736.748 318.504,736.414 319.5,736.5 Z"/></g>
<g><path style="opacity:1" fill="#cac3a1" d="M 721.5,712.5 C 714.574,722.26 705.907,730.093 695.5,736C 641.821,764.682 584.821,784.015 524.5,794C 500.902,795.797 477.569,794.131 454.5,789C 429.753,783.914 405.753,776.747 382.5,767.5C 425.327,773.048 468.327,774.881 511.5,773C 540.492,772.112 568.825,767.446 596.5,759C 607.441,754.612 616.941,748.112 625,739.5C 628.23,735.375 630.063,730.708 630.5,725.5C 661.975,728.356 692.309,724.022 721.5,712.5 Z"/></g>
<g><path style="opacity:0.992" fill="#161a2e" d="M 515.5,709.5 C 525.917,708.464 535.917,709.964 545.5,714C 556.185,722.926 568.518,727.76 582.5,728.5C 582.5,729.5 582.5,730.5 582.5,731.5C 570.213,729.795 558.88,725.628 548.5,719C 535.671,715.856 522.671,714.856 509.5,716C 497.374,718.061 485.374,720.728 473.5,724C 465.16,725.22 456.827,725.387 448.5,724.5C 462.36,723.534 476.026,721.368 489.5,718C 498.126,714.624 506.793,711.791 515.5,709.5 Z"/></g>
<g><path style="opacity:1" fill="#e265b9" d="M 513.5,711.5 C 520.175,711.334 526.842,711.5 533.5,712C 536.56,712.848 539.56,713.848 542.5,715C 532.214,714.218 521.88,713.552 511.5,713C 512.416,712.722 513.082,712.222 513.5,711.5 Z"/></g>
<g><path style="opacity:1" fill="#0b0219" d="M 741.5,730.5 C 727.147,747.001 710.814,761.167 692.5,773C 687.757,776.038 682.757,778.538 677.5,780.5C 665.79,775.841 654.457,770.175 643.5,763.5C 662.834,755.666 681.501,746.499 699.5,736C 707.215,731.291 714.049,725.458 720,718.5C 727.148,722.654 734.315,726.654 741.5,730.5 Z"/></g>
<g><path style="opacity:0.975" fill="#2c0f5a" d="M 304.5,756.5 C 295.238,763.066 285.238,768.399 274.5,772.5C 254.765,762.409 236.098,750.742 218.5,737.5C 224.591,735.11 230.591,732.777 236.5,730.5C 241.48,730.001 246.48,729.668 251.5,729.5C 259.891,728.78 267.557,730.613 274.5,735C 282.725,744.738 292.725,751.904 304.5,756.5 Z"/></g>
<g><path style="opacity:0.977" fill="#210a41" d="M 741.5,730.5 C 756.315,737.53 770.981,744.53 785.5,751.5C 760.856,768.327 734.522,782.327 706.5,793.5C 696.308,790.112 686.642,785.779 677.5,780.5C 682.757,778.538 687.757,776.038 692.5,773C 710.814,761.167 727.147,747.001 741.5,730.5 Z"/></g>
<g><path style="opacity:0.985" fill="#16072f" d="M 326.5,797.5 C 309.499,791.165 293.166,783.498 277.5,774.5C 287.328,769.915 296.995,764.749 306.5,759C 313.239,754.953 319.239,749.953 324.5,744C 325.833,743.333 327.167,743.333 328.5,744C 346.601,754.884 365.601,763.884 385.5,771C 379.137,771.391 372.803,772.058 366.5,773C 349.895,776.158 336.562,784.324 326.5,797.5 Z"/></g>
<g><path style="opacity:0.985" fill="#16072f" d="M 703.5,794.5 C 688.959,801.128 673.959,806.795 658.5,811.5C 654.045,803.878 648.045,797.711 640.5,793C 627.096,785.637 612.763,781.137 597.5,779.5C 611.807,774.931 625.974,769.931 640,764.5C 660.445,775.931 681.612,785.931 703.5,794.5 Z"/></g>
<g><path style="opacity:0.988" fill="#210a41" d="M 656.5,811.5 C 620.779,822.678 584.112,829.344 546.5,831.5C 532.871,825.679 518.537,822.513 503.5,822C 484.768,820.984 466.101,821.651 447.5,824C 443.285,824.855 439.285,826.022 435.5,827.5C 398.295,821.534 362.295,811.534 327.5,797.5C 345.809,778.672 368.142,770.839 394.5,774C 408.319,778.954 422.319,783.287 436.5,787C 470.319,796.345 504.652,798.679 539.5,794C 557.614,790.15 575.614,785.983 593.5,781.5C 606.909,782.936 619.909,786.102 632.5,791C 642.533,795.539 650.533,802.372 656.5,811.5 Z"/></g>
<g><path style="opacity:0.985" fill="#030f29" d="M 546.5,831.5 C 545.391,831.557 544.391,831.89 543.5,832.5C 536.473,829.738 529.14,827.571 521.5,826C 494.397,822.27 467.397,822.77 440.5,827.5C 438.833,827.5 437.167,827.5 435.5,827.5C 439.285,826.022 443.285,824.855 447.5,824C 466.101,821.651 484.768,820.984 503.5,822C 518.537,822.513 532.871,825.679 546.5,831.5 Z"/></g>
<g><path style="opacity:0.938" fill="#16072f" d="M 543.5,832.5 C 522.164,832.667 500.831,832.5 479.5,832C 466.265,831.279 453.265,829.779 440.5,827.5C 467.397,822.77 494.397,822.27 521.5,826C 529.14,827.571 536.473,829.738 543.5,832.5 Z"/></g>
</svg>
