<?xml version="1.0" encoding="UTF-8"?>
<!DOCTYPE svg PUBLIC "-//W3C//DTD SVG 1.1//EN" "http://www.w3.org/Graphics/SVG/1.1/DTD/svg11.dtd">
<svg xmlns="http://www.w3.org/2000/svg" version="1.1" width="1024px" height="1024px" style="shape-rendering:geometricPrecision; text-rendering:geometricPrecision; image-rendering:optimizeQuality; fill-rule:evenodd; clip-rule:evenodd" xmlns:xlink="http://www.w3.org/1999/xlink">
<g><path style="opacity:0.863" fill="#060305" d="M 504.5,966.5 C 501.05,964.603 497.383,962.77 493.5,961C 490.426,955.466 485.759,952.466 479.5,952C 477.951,950.786 476.785,949.286 476,947.5C 473.188,948.537 470.688,947.87 468.5,945.5C 466.744,946.407 464.911,946.407 463,945.5C 460.917,947.245 458.583,948.578 456,949.5C 454.774,949.355 453.607,949.022 452.5,948.5C 449.982,952.623 446.816,953.29 443,950.5C 440.333,953.167 437.667,953.167 435,950.5C 430.734,951.031 426.567,952.031 422.5,953.5C 421.522,953.023 420.689,952.357 420,951.5C 418.333,952.833 416.667,952.833 415,951.5C 411.471,956.738 408.137,956.738 405,951.5C 401.697,952.184 398.864,953.684 396.5,956C 394.062,956.682 391.895,956.182 390,954.5C 388.046,956.434 385.88,956.767 383.5,955.5C 379.877,959.102 376.377,959.102 373,955.5C 372.333,952.167 372.333,948.833 373,945.5C 382.294,917.579 395.294,891.579 412,867.5C 424.582,854.255 436.416,840.422 447.5,826C 335.548,800.13 257.381,734.297 213,628.5C 212.259,627.359 211.425,627.359 210.5,628.5C 209.469,621.343 207.802,614.343 205.5,607.5C 204.833,606.167 204.167,606.167 203.5,607.5C 200.451,611.537 197.451,615.537 194.5,619.5C 190.276,624.925 186.276,630.591 182.5,636.5C 180.235,637.647 177.902,637.814 175.5,637C 171.881,628.382 166.381,621.216 159,615.5C 152.618,608.12 146.618,600.453 141,592.5C 135.927,586.756 130.26,581.756 124,577.5C 121.034,572.253 121.034,566.92 124,561.5C 144.691,531.455 166.357,502.121 189,473.5C 194.768,462.493 197.268,450.826 196.5,438.5C 197.488,435.55 198.321,432.55 199,429.5C 200,428.833 201,428.167 202,427.5C 229.705,332.238 288.205,263.071 377.5,220C 391.716,213.706 406.216,208.206 421,203.5C 426.65,176.98 431.65,150.313 436,123.5C 443.448,94.9367 456.448,69.27 475,46.5C 475.198,44.6183 475.698,42.9516 476.5,41.5C 476.272,43.3547 476.939,44.1881 478.5,44C 483.065,39.9245 487.732,36.0912 492.5,32.5C 493.391,31.8902 494.391,31.5569 495.5,31.5C 499.858,30.4935 504.191,29.3269 508.5,28C 509.743,26.184 509.41,24.684 507.5,23.5C 515.784,17.1629 522.45,18.6629 527.5,28C 530.553,28.1786 533.553,28.6786 536.5,29.5C 541.44,34.6949 544.107,40.6949 544.5,47.5C 546.192,49.3586 547.692,51.3586 549,53.5C 553.819,72.4429 558.486,91.4429 563,110.5C 564.487,114.116 565.82,117.783 567,121.5C 568.362,132.949 570.362,144.282 573,155.5C 577.855,169.736 581.521,184.069 584,198.5C 695.556,228.268 772.223,296.935 814,404.5C 822.6,429.164 828.266,454.497 831,480.5C 840.963,490.831 850.963,501.831 861,513.5C 866.63,524.761 872.297,536.094 878,547.5C 883.885,553.009 886.219,559.675 885,567.5C 882.914,569.249 880.581,570.583 878,571.5C 876.739,571.241 875.739,570.574 875,569.5C 865.302,576.326 855.135,582.493 844.5,588C 837.81,588.906 831.977,587.072 827,582.5C 827.569,586.626 828.402,590.793 829.5,595C 829.491,596.404 828.991,597.57 828,598.5C 825.872,594.11 824.539,589.443 824,584.5C 800.945,675.855 748.778,745.022 667.5,792C 629.058,813.027 588.058,825.86 544.5,830.5C 546.31,839.751 547.81,849.084 549,858.5C 553.845,877.406 559.512,896.072 566,914.5C 567.336,931.203 569.003,947.87 571,964.5C 571.812,975.206 571.478,985.873 570,996.5C 568.662,1000.92 565.828,1003.58 561.5,1004.5C 557.38,1004.07 553.713,1002.57 550.5,1000C 547.167,999.667 543.833,999.333 540.5,999C 538.004,996.344 536.004,993.344 534.5,990C 530.55,989.226 527.55,987.059 525.5,983.5C 524.914,983.709 524.414,984.043 524,984.5C 521.394,981.636 518.227,979.636 514.5,978.5C 513.667,976.833 512.833,975.167 512,973.5C 511.282,974.451 510.449,974.617 509.5,974C 507.177,971.83 505.51,969.33 504.5,966.5 Z"/></g>
<g><path style="opacity:0.084" fill="#421c5b" d="M 507.5,23.5 C 509.41,24.684 509.743,26.184 508.5,28C 504.191,29.3269 499.858,30.4935 495.5,31.5C 496.499,24.5181 500.499,21.8515 507.5,23.5 Z"/></g>
<g><path style="opacity:0.086" fill="#461d5a" d="M 492.5,32.5 C 487.732,36.0912 483.065,39.9245 478.5,44C 476.939,44.1881 476.272,43.3547 476.5,41.5C 477.276,33.216 481.609,29.0493 489.5,29C 491.426,29.4224 492.426,30.5891 492.5,32.5 Z"/></g>
<g><path style="opacity:1" fill="#120f16" d="M 471.5,75.5 C 471.294,71.1018 471.627,66.7685 472.5,62.5C 474.4,60.3805 476.066,58.0472 477.5,55.5C 484.127,52.1849 490.127,53.0182 495.5,58C 496.622,60.1238 498.122,61.9571 500,63.5C 500.667,69.1667 500.667,74.8333 500,80.5C 498.833,82.1667 497.667,83.8333 496.5,85.5C 501.257,91.3277 502.757,97.9943 501,105.5C 498.981,110.519 495.314,112.519 490,111.5C 477.56,110.65 472.226,103.983 474,91.5C 475.696,89.4404 476.863,87.1071 477.5,84.5C 475.509,81.5065 473.509,78.5065 471.5,75.5 Z"/></g>
<g><path style="opacity:1" fill="#4e2f5e" d="M 476.5,53.5 C 476.328,54.4916 476.662,55.1583 477.5,55.5C 476.066,58.0472 474.4,60.3805 472.5,62.5C 472.5,61.8333 472.167,61.5 471.5,61.5C 472.68,58.4604 474.347,55.7937 476.5,53.5 Z"/></g>
<g><path style="opacity:1" fill="#553171" d="M 515.5,49.5 C 517.031,54.2502 517.698,59.2502 517.5,64.5C 516.111,59.7312 515.444,54.7312 515.5,49.5 Z"/></g>
<g><path style="opacity:1" fill="#e2dfe5" d="M 480.5,57.5 C 495.501,58.5173 500.501,66.1839 495.5,80.5C 490.684,80.6048 485.851,80.9381 481,81.5C 472.537,73.7624 472.37,65.7624 480.5,57.5 Z"/></g>
<g><path style="opacity:1" fill="#714193" d="M 471.5,61.5 C 472.167,61.5 472.5,61.8333 472.5,62.5C 471.627,66.7685 471.294,71.1018 471.5,75.5C 470.698,74.0484 470.198,72.3817 470,70.5C 468.855,69.3157 467.688,69.3157 466.5,70.5C 467.774,67.2402 469.44,64.2402 471.5,61.5 Z"/></g>
<g><path style="opacity:1" fill="#151417" d="M 482.5,66.5 C 489.641,66.6204 491.308,69.7871 487.5,76C 480.556,75.8539 478.89,72.6872 482.5,66.5 Z"/></g>
<g><path style="opacity:1" fill="#8447b1" d="M 515.5,49.5 C 515.444,54.7312 516.111,59.7312 517.5,64.5C 517.769,77.5323 517.269,90.5323 516,103.5C 513.923,117.965 511.423,132.298 508.5,146.5C 508.167,146.5 507.833,146.5 507.5,146.5C 506.954,142.955 506.287,139.455 505.5,136C 506.634,134.984 506.301,134.317 504.5,134C 505.255,130.974 506.255,127.974 507.5,125C 506.033,123.902 505.199,122.402 505,120.5C 504.097,119.299 502.931,118.465 501.5,118C 501.833,117.667 502.167,117.333 502.5,117C 501.167,116.667 499.833,116.333 498.5,116C 498.833,115.667 499.167,115.333 499.5,115C 496.006,112.271 492.339,111.937 488.5,114C 489.167,114.333 489.833,114.667 490.5,115C 490.167,116 489.833,117 489.5,118C 491.103,120.539 492.436,123.206 493.5,126C 491.894,128.864 491.394,132.031 492,135.5C 491.576,131.81 490.742,131.643 489.5,135C 488.167,137 488.167,139 489.5,141C 488.583,146.254 486.916,151.254 484.5,156C 485.961,158.453 485.294,160.786 482.5,163C 482.833,163.333 483.167,163.667 483.5,164C 482.891,166.51 481.558,168.51 479.5,170C 479.255,171.911 479.255,173.911 479.5,176C 478.004,180.217 476.67,184.55 475.5,189C 475.312,193.154 475.646,197.154 476.5,201C 474.699,201.317 474.366,201.984 475.5,203C 474.929,204.205 474.262,205.372 473.5,206.5C 468.112,199.779 461.778,194.112 454.5,189.5C 451.472,181.652 445.806,178.485 437.5,180C 434.686,181.494 432.686,183.66 431.5,186.5C 431.993,184.194 432.326,181.861 432.5,179.5C 432.5,179.167 432.5,178.833 432.5,178.5C 433.972,175.731 435.139,172.731 436,169.5C 436.651,163.173 437.151,156.84 437.5,150.5C 438.939,139.905 440.939,129.572 443.5,119.5C 445.943,114.5 447.61,109.166 448.5,103.5C 449.227,101.046 450.227,98.7128 451.5,96.5C 452.79,95.9423 453.623,94.9423 454,93.5C 454.667,94.8333 455.333,94.8333 456,93.5C 456.533,90.0712 457.367,86.7379 458.5,83.5C 460.418,78.6566 463.084,74.3233 466.5,70.5C 467.688,69.3157 468.855,69.3157 470,70.5C 470.198,72.3817 470.698,74.0484 471.5,75.5C 473.509,78.5065 475.509,81.5065 477.5,84.5C 476.863,87.1071 475.696,89.4404 474,91.5C 472.226,103.983 477.56,110.65 490,111.5C 495.314,112.519 498.981,110.519 501,105.5C 502.757,97.9943 501.257,91.3277 496.5,85.5C 497.667,83.8333 498.833,82.1667 500,80.5C 500.667,74.8333 500.667,69.1667 500,63.5C 498.122,61.9571 496.622,60.1238 495.5,58C 490.127,53.0182 484.127,52.1849 477.5,55.5C 476.662,55.1583 476.328,54.4916 476.5,53.5C 485.55,41.4514 497.55,34.4514 512.5,32.5C 513.628,38.141 514.628,43.8076 515.5,49.5 Z"/></g>
<g><path style="opacity:1" fill="#613d21" d="M 520.5,58.5 C 522.007,63.4127 522.674,68.5793 522.5,74C 522.499,77.6833 522.165,81.1833 521.5,84.5C 521.632,75.8089 521.299,67.1423 520.5,58.5 Z"/></g>
<g><path style="opacity:1" fill="#7e459f" d="M 549.5,81.5 C 548.883,81.3893 548.383,81.056 548,80.5C 548.266,83.9008 546.766,85.5674 543.5,85.5C 543.657,84.1266 543.49,82.7932 543,81.5C 542.79,83.0581 542.29,84.3915 541.5,85.5C 541.806,77.7772 542.639,70.1105 544,62.5C 546.728,68.5231 548.561,74.8564 549.5,81.5 Z"/></g>
<g><path style="opacity:1" fill="#6c398e" d="M 458.5,83.5 C 457.367,86.7379 456.533,90.0712 456,93.5C 455.333,94.8333 454.667,94.8333 454,93.5C 453.623,94.9423 452.79,95.9423 451.5,96.5C 452.602,91.4248 454.936,87.0914 458.5,83.5 Z"/></g>
<g><path style="opacity:1" fill="#efecef" d="M 495.5,89.5 C 498.391,94.0435 499.224,99.0435 498,104.5C 496.961,105.71 495.794,106.71 494.5,107.5C 492.167,107.5 489.833,107.5 487.5,107.5C 487.716,104.744 488.716,102.41 490.5,100.5C 490.833,99.8333 491.167,99.1667 491.5,98.5C 492.321,95.3586 492.821,92.0252 493,88.5C 493.671,89.2524 494.504,89.5858 495.5,89.5 Z"/></g>
<g><path style="opacity:1" fill="#141012" d="M 491.5,98.5 C 491.167,99.1667 490.833,99.8333 490.5,100.5C 483.644,103.569 480.81,101.236 482,93.5C 487.726,90.0361 490.893,91.7027 491.5,98.5 Z"/></g>
<g><path style="opacity:1" fill="#dbd7de" d="M 495.5,89.5 C 494.504,89.5858 493.671,89.2524 493,88.5C 492.821,92.0252 492.321,95.3586 491.5,98.5C 490.893,91.7027 487.726,90.0361 482,93.5C 480.81,101.236 483.644,103.569 490.5,100.5C 488.716,102.41 487.716,104.744 487.5,107.5C 489.833,107.5 492.167,107.5 494.5,107.5C 484.872,110.012 478.872,106.345 476.5,96.5C 477.346,91.4903 479.68,87.3236 483.5,84C 488.62,83.3933 492.62,85.2266 495.5,89.5 Z"/></g>
<g><path style="opacity:1" fill="#a0613c" d="M 521.5,84.5 C 522.165,81.1833 522.499,77.6833 522.5,74C 522.674,68.5793 522.007,63.4127 520.5,58.5C 518.929,47.0739 516.929,35.7406 514.5,24.5C 518.493,24.2447 521.326,25.9114 523,29.5C 524.225,34.5072 525.559,39.5072 527,44.5C 527.4,63.5076 527.066,82.5076 526,101.5C 524.647,121.233 522.813,140.9 520.5,160.5C 521.5,160.5 522.5,160.5 523.5,160.5C 525.914,139.524 528.08,118.524 530,97.5C 530.667,80.1667 530.667,62.8333 530,45.5C 529.727,42.6069 528.893,39.9403 527.5,37.5C 530.003,33.5968 532.837,33.5968 536,37.5C 538.853,42.7982 540.02,48.4649 539.5,54.5C 536.257,91.9079 532.757,129.241 529,166.5C 528.5,167 528,167.5 527.5,168C 523.833,168.667 520.167,168.667 516.5,168C 514.513,166.681 513.346,164.848 513,162.5C 512.333,156.167 512.333,149.833 513,143.5C 516.045,130.687 518.379,117.687 520,104.5C 520.453,97.8229 520.953,91.1562 521.5,84.5 Z"/></g>
<g><path style="opacity:1" fill="#4f2965" d="M 448.5,103.5 C 447.61,109.166 445.943,114.5 443.5,119.5C 444.39,113.834 446.057,108.5 448.5,103.5 Z"/></g>
<g><path style="opacity:1" fill="#8748b6" d="M 549.5,81.5 C 559.106,118.785 567.939,156.452 576,194.5C 576.651,198.637 578.485,202.137 581.5,205C 665.432,224.615 730.932,270.449 778,342.5C 802.171,380.852 817.338,422.518 823.5,467.5C 823.444,472.731 824.111,477.731 825.5,482.5C 832.132,587.138 797.465,675.305 721.5,747C 667.214,793.307 604.547,820.141 533.5,827.5C 531.934,829.956 530.267,832.456 528.5,835C 528.833,836.667 529.167,838.333 529.5,840C 528.953,842.367 527.953,844.533 526.5,846.5C 527.025,847.192 527.692,847.692 528.5,848C 526.49,850.374 524.49,852.707 522.5,855C 524.787,856.427 525.12,858.261 523.5,860.5C 524.601,862.642 525.601,864.808 526.5,867C 526.374,869.12 526.041,871.286 525.5,873.5C 520.315,874.195 519.315,876.528 522.5,880.5C 518.577,887.747 512.577,892.414 504.5,894.5C 500.952,894.905 497.619,894.405 494.5,893C 496.878,892.026 496.544,891.359 493.5,891C 493.845,888.27 494.011,885.437 494,882.5C 495.167,881.333 496.333,880.167 497.5,879C 497.997,867.899 497.997,855.899 497.5,843C 493.788,843.285 490.121,844.118 486.5,845.5C 479.893,844.063 475.227,840.229 472.5,834C 466.58,833.898 462.913,831.064 461.5,825.5C 461.672,824.508 461.338,823.842 460.5,823.5C 359.353,803.7 283.52,749.033 233,659.5C 226.936,647.377 221.436,635.043 216.5,622.5C 215.445,619.927 215.278,617.261 216,614.5C 216.192,616.577 216.692,618.577 217.5,620.5C 222.805,614.86 228.139,609.193 233.5,603.5C 227.703,551.531 222.036,499.531 216.5,447.5C 213.111,444.4 209.945,441.067 207,437.5C 206.506,435.866 206.34,434.199 206.5,432.5C 233.491,335.672 292.491,265.839 383.5,223C 397.066,216.867 411.066,212.034 425.5,208.5C 428.392,208.279 431.059,207.446 433.5,206C 431.866,205.506 430.199,205.34 428.5,205.5C 429.162,201.534 429.495,197.534 429.5,193.5C 429.5,193.167 429.5,192.833 429.5,192.5C 430.285,190.626 430.952,188.626 431.5,186.5C 432.686,183.66 434.686,181.494 437.5,180C 445.806,178.485 451.472,181.652 454.5,189.5C 461.778,194.112 468.112,199.779 473.5,206.5C 474.262,205.372 474.929,204.205 475.5,203C 474.366,201.984 474.699,201.317 476.5,201C 475.646,197.154 475.312,193.154 475.5,189C 476.67,184.55 478.004,180.217 479.5,176C 479.255,173.911 479.255,171.911 479.5,170C 481.558,168.51 482.891,166.51 483.5,164C 483.167,163.667 482.833,163.333 482.5,163C 485.294,160.786 485.961,158.453 484.5,156C 486.916,151.254 488.583,146.254 489.5,141C 488.167,139 488.167,137 489.5,135C 490.742,131.643 491.576,131.81 492,135.5C 491.394,132.031 491.894,128.864 493.5,126C 492.436,123.206 491.103,120.539 489.5,118C 489.833,117 490.167,116 490.5,115C 489.833,114.667 489.167,114.333 488.5,114C 492.339,111.937 496.006,112.271 499.5,115C 499.167,115.333 498.833,115.667 498.5,116C 499.833,116.333 501.167,116.667 502.5,117C 502.167,117.333 501.833,117.667 501.5,118C 502.931,118.465 504.097,119.299 505,120.5C 505.199,122.402 506.033,123.902 507.5,125C 506.255,127.974 505.255,130.974 504.5,134C 506.301,134.317 506.634,134.984 505.5,136C 506.287,139.455 506.954,142.955 507.5,146.5C 507.334,152.176 507.501,157.843 508,163.5C 508.2,165.32 509.034,166.653 510.5,167.5C 511.992,170.323 514.326,171.99 517.5,172.5C 520.976,173.643 524.642,173.81 528.5,173C 529.056,172.617 529.389,172.117 529.5,171.5C 531.708,170.106 533.208,168.106 534,165.5C 535.015,161.56 535.515,157.56 535.5,153.5C 536.416,144.001 537.083,134.335 537.5,124.5C 537.5,123.5 537.5,122.5 537.5,121.5C 539.459,115.25 540.126,108.584 539.5,101.5C 540.075,96.0313 540.741,90.6979 541.5,85.5C 542.29,84.3915 542.79,83.0581 543,81.5C 543.49,82.7932 543.657,84.1266 543.5,85.5C 546.766,85.5674 548.266,83.9008 548,80.5C 548.383,81.056 548.883,81.3893 549.5,81.5 Z"/></g>
<g><path style="opacity:1" fill="#4f2d69" d="M 539.5,101.5 C 540.126,108.584 539.459,115.25 537.5,121.5C 538.005,114.676 538.671,108.009 539.5,101.5 Z"/></g>
<g><path style="opacity:1" fill="#361e4c" d="M 537.5,124.5 C 537.083,134.335 536.416,144.001 535.5,153.5C 535.334,146.159 535.5,138.826 536,131.5C 536.186,128.964 536.686,126.631 537.5,124.5 Z"/></g>
<g><path style="opacity:1" fill="#4f2d68" d="M 507.5,146.5 C 507.833,146.5 508.167,146.5 508.5,146.5C 508.05,153.649 508.716,160.649 510.5,167.5C 509.034,166.653 508.2,165.32 508,163.5C 507.501,157.843 507.334,152.176 507.5,146.5 Z"/></g>
<g><path style="opacity:1" fill="#613380" d="M 437.5,150.5 C 437.151,156.84 436.651,163.173 436,169.5C 435.139,172.731 433.972,175.731 432.5,178.5C 433.446,168.907 435.113,159.573 437.5,150.5 Z"/></g>
<g><path style="opacity:1" fill="#3c2053" d="M 529.5,171.5 C 529.389,172.117 529.056,172.617 528.5,173C 524.642,173.81 520.976,173.643 517.5,172.5C 521.566,172.693 525.566,172.36 529.5,171.5 Z"/></g>
<g><path style="opacity:1" fill="#5e317d" d="M 432.5,179.5 C 432.326,181.861 431.993,184.194 431.5,186.5C 430.952,188.626 430.285,190.626 429.5,192.5C 428.839,187.644 429.839,183.31 432.5,179.5 Z"/></g>
<g><path style="opacity:1" fill="#66378a" d="M 429.5,193.5 C 429.495,197.534 429.162,201.534 428.5,205.5C 430.199,205.34 431.866,205.506 433.5,206C 431.059,207.446 428.392,208.279 425.5,208.5C 427.099,203.475 428.432,198.475 429.5,193.5 Z"/></g>
<g><path style="opacity:1" fill="#8547b1" d="M 206.5,432.5 C 206.34,434.199 206.506,435.866 207,437.5C 209.945,441.067 213.111,444.4 216.5,447.5C 222.036,499.531 227.703,551.531 233.5,603.5C 228.139,609.193 222.805,614.86 217.5,620.5C 216.692,618.577 216.192,616.577 216,614.5C 215.278,617.261 215.445,619.927 216.5,622.5C 214.719,618.583 213.719,614.249 213.5,609.5C 213.26,602.261 212.26,595.261 210.5,588.5C 209.62,575.882 207.453,563.549 204,551.5C 203.209,541.178 202.709,530.845 202.5,520.5C 202.581,503.489 202.247,486.489 201.5,469.5C 201.951,457.793 202.951,446.126 204.5,434.5C 205.182,433.757 205.849,433.091 206.5,432.5 Z"/></g>
<g><path style="opacity:1" fill="#552d72" d="M 823.5,467.5 C 824.889,472.269 825.556,477.269 825.5,482.5C 824.111,477.731 823.444,472.731 823.5,467.5 Z"/></g>
<g><path style="opacity:1" fill="#5f3373" d="M 201.5,469.5 C 202.247,486.489 202.581,503.489 202.5,520.5C 201.696,506.165 201.029,491.665 200.5,477C 200.503,474.31 200.836,471.81 201.5,469.5 Z"/></g>
<g><path style="opacity:1" fill="#412919" d="M 829.5,495.5 C 832.586,498.223 835.92,500.723 839.5,503C 845.405,509.397 851.071,515.897 856.5,522.5C 858.975,525.785 860.642,529.452 861.5,533.5C 852.4,526.232 844.9,517.565 839,507.5C 836.356,505.69 833.856,503.69 831.5,501.5C 830.513,504.768 830.18,508.102 830.5,511.5C 829.512,506.36 829.179,501.026 829.5,495.5 Z"/></g>
<g><path style="opacity:1" fill="#9e5e3a" d="M 857.5,520.5 C 857.672,521.492 857.338,522.158 856.5,522.5C 851.071,515.897 845.405,509.397 839.5,503C 835.92,500.723 832.586,498.223 829.5,495.5C 829.337,493.143 829.503,490.81 830,488.5C 830.903,489.701 832.069,490.535 833.5,491C 839.744,499.301 846.577,507.135 854,514.5C 855.394,516.388 856.56,518.388 857.5,520.5 Z"/></g>
<g><path style="opacity:1" fill="#452c1e" d="M 830.5,512.5 C 842.429,520.341 851.596,530.675 858,543.5C 861.64,545.955 863.807,549.289 864.5,553.5C 860.853,553.378 858.019,551.712 856,548.5C 851.75,542.335 847.75,536.002 844,529.5C 839.866,524.853 835.366,520.853 830.5,517.5C 830.5,515.833 830.5,514.167 830.5,512.5 Z"/></g>
<g><path style="opacity:1" fill="#a5633d" d="M 861.5,533.5 C 862.5,532.167 863.5,532.167 864.5,533.5C 868.546,542.592 873.38,551.258 879,559.5C 879.494,561.134 879.66,562.801 879.5,564.5C 876.538,563.939 873.705,562.939 871,561.5C 867.956,562.781 866.79,565.115 867.5,568.5C 864.406,569.213 861.406,570.213 858.5,571.5C 856.629,571.141 855.129,570.141 854,568.5C 847.622,559.122 839.622,551.455 830,545.5C 829.505,543.527 829.338,541.527 829.5,539.5C 829.5,539.167 829.5,538.833 829.5,538.5C 830.158,537.602 830.824,536.602 831.5,535.5C 839.003,541.505 846.003,548.005 852.5,555C 853.5,555.5 854.5,556 855.5,556.5C 855.833,555.833 856.167,555.167 856.5,554.5C 853.757,550.25 850.424,546.417 846.5,543C 842.534,540.036 838.867,536.703 835.5,533C 833.807,532.153 832.14,531.32 830.5,530.5C 830.5,526.167 830.5,521.833 830.5,517.5C 835.366,520.853 839.866,524.853 844,529.5C 847.75,536.002 851.75,542.335 856,548.5C 858.019,551.712 860.853,553.378 864.5,553.5C 863.807,549.289 861.64,545.955 858,543.5C 851.596,530.675 842.429,520.341 830.5,512.5C 830.5,512.167 830.5,511.833 830.5,511.5C 830.18,508.102 830.513,504.768 831.5,501.5C 833.856,503.69 836.356,505.69 839,507.5C 844.9,517.565 852.4,526.232 861.5,533.5 Z"/></g>
<g><path style="opacity:1" fill="#a7633e" d="M 196.5,513.5 C 188.614,519.551 181.447,526.551 175,534.5C 168.501,543.494 162.501,552.827 157,562.5C 155.451,565.312 154.618,568.312 154.5,571.5C 156.39,571.703 157.89,571.037 159,569.5C 168.302,550.214 180.635,533.214 196,518.5C 196.21,520.058 196.71,521.391 197.5,522.5C 197.5,525.167 197.5,527.833 197.5,530.5C 194.12,537.41 189.287,543.41 183,548.5C 178,555.833 173,563.167 168,570.5C 166.092,573.206 165.259,576.206 165.5,579.5C 167.39,579.703 168.89,579.037 170,577.5C 174.148,569.204 178.815,561.204 184,553.5C 188.149,549.196 191.816,544.53 195,539.5C 195.816,538.177 196.983,537.511 198.5,537.5C 198.324,542.88 198.658,548.213 199.5,553.5C 199.785,555.288 199.452,556.955 198.5,558.5C 191.771,566.277 185.271,574.277 179,582.5C 177.047,585.255 175.88,588.255 175.5,591.5C 177.144,591.714 178.644,591.38 180,590.5C 181,588.5 182,586.5 183,584.5C 189.464,576.891 195.631,569.224 201.5,561.5C 202.327,565.807 202.993,570.14 203.5,574.5C 196.19,583.318 189.024,592.318 182,601.5C 181.506,603.134 181.34,604.801 181.5,606.5C 182.978,606.762 184.311,606.429 185.5,605.5C 191.179,596.81 197.346,588.477 204,580.5C 204.198,582.382 204.698,584.048 205.5,585.5C 206.412,589.131 206.579,592.797 206,596.5C 196.442,607.29 187.609,618.623 179.5,630.5C 174.924,623.338 169.424,617.005 163,611.5C 153.504,597.162 142.17,584.495 129,573.5C 128.333,570.833 128.333,568.167 129,565.5C 133.748,557.001 138.748,548.668 144,540.5C 160.617,518.214 177.617,496.214 195,474.5C 196.327,487.462 196.827,500.462 196.5,513.5 Z"/></g>
<g><path style="opacity:1" fill="#4a2d20" d="M 192.5,494.5 C 193.497,494.47 194.164,494.97 194.5,496C 193.132,498.567 191.632,501.067 190,503.5C 175.675,518.492 163.675,535.158 154,553.5C 152.989,554.337 151.822,554.67 150.5,554.5C 150.298,552.011 150.798,549.677 152,547.5C 158.503,536.491 165.503,525.824 173,515.5C 180.073,508.931 186.573,501.931 192.5,494.5 Z"/></g>
<g><path style="opacity:1" fill="#734c33" d="M 857.5,520.5 C 860.593,524.347 862.926,528.68 864.5,533.5C 863.5,532.167 862.5,532.167 861.5,533.5C 860.642,529.452 858.975,525.785 856.5,522.5C 857.338,522.158 857.672,521.492 857.5,520.5 Z"/></g>
<g><path style="opacity:1" fill="#4c2d1d" d="M 196.5,513.5 C 197.299,516.43 197.632,519.43 197.5,522.5C 196.71,521.391 196.21,520.058 196,518.5C 180.635,533.214 168.302,550.214 159,569.5C 157.89,571.037 156.39,571.703 154.5,571.5C 154.618,568.312 155.451,565.312 157,562.5C 162.501,552.827 168.501,543.494 175,534.5C 181.447,526.551 188.614,519.551 196.5,513.5 Z"/></g>
<g><path style="opacity:1" fill="#462c1e" d="M 830.5,530.5 C 832.14,531.32 833.807,532.153 835.5,533C 838.867,536.703 842.534,540.036 846.5,543C 850.424,546.417 853.757,550.25 856.5,554.5C 856.167,555.167 855.833,555.833 855.5,556.5C 854.5,556 853.5,555.5 852.5,555C 846.003,548.005 839.003,541.505 831.5,535.5C 830.824,536.602 830.158,537.602 829.5,538.5C 829.833,535.833 830.167,533.167 830.5,530.5 Z"/></g>
<g><path style="opacity:1" fill="#462d1f" d="M 829.5,539.5 C 829.338,541.527 829.505,543.527 830,545.5C 839.622,551.455 847.622,559.122 854,568.5C 855.129,570.141 856.629,571.141 858.5,571.5C 857.5,573.167 856.167,574.5 854.5,575.5C 848.092,565.923 840.092,557.757 830.5,551C 829.552,550.517 828.552,550.351 827.5,550.5C 828.026,546.688 828.693,543.021 829.5,539.5 Z"/></g>
<g><path style="opacity:1" fill="#492c1d" d="M 197.5,530.5 C 198.468,532.607 198.802,534.941 198.5,537.5C 196.983,537.511 195.816,538.177 195,539.5C 191.816,544.53 188.149,549.196 184,553.5C 178.815,561.204 174.148,569.204 170,577.5C 168.89,579.037 167.39,579.703 165.5,579.5C 165.259,576.206 166.092,573.206 168,570.5C 173,563.167 178,555.833 183,548.5C 189.287,543.41 194.12,537.41 197.5,530.5 Z"/></g>
<g><path style="opacity:1" fill="#422c1d" d="M 827.5,561.5 C 834.447,565.433 839.114,571.099 841.5,578.5C 840.448,578.649 839.448,578.483 838.5,578C 836.333,575.167 834.167,572.333 832,569.5C 830.549,567.536 828.716,566.203 826.5,565.5C 826.833,564.167 827.167,562.833 827.5,561.5 Z"/></g>
<g><path style="opacity:1" fill="#a5623c" d="M 827.5,550.5 C 828.552,550.351 829.552,550.517 830.5,551C 840.092,557.757 848.092,565.923 854.5,575.5C 850.122,576.857 846.122,579.024 842.5,582C 840.087,582.484 837.754,582.15 835.5,581C 832.387,577.887 829.221,574.721 826,571.5C 825.322,569.402 825.489,567.402 826.5,565.5C 828.716,566.203 830.549,567.536 832,569.5C 834.167,572.333 836.333,575.167 838.5,578C 839.448,578.483 840.448,578.649 841.5,578.5C 839.114,571.099 834.447,565.433 827.5,561.5C 827.5,557.833 827.5,554.167 827.5,550.5 Z"/></g>
<g><path style="opacity:1" fill="#4a2d1d" d="M 199.5,553.5 C 200.371,556.003 201.037,558.67 201.5,561.5C 195.631,569.224 189.464,576.891 183,584.5C 182,586.5 181,588.5 180,590.5C 178.644,591.38 177.144,591.714 175.5,591.5C 175.88,588.255 177.047,585.255 179,582.5C 185.271,574.277 191.771,566.277 198.5,558.5C 199.452,556.955 199.785,555.288 199.5,553.5 Z"/></g>
<g><path style="opacity:1" fill="#492d1c" d="M 203.5,574.5 C 205.082,577.876 205.749,581.542 205.5,585.5C 204.698,584.048 204.198,582.382 204,580.5C 197.346,588.477 191.179,596.81 185.5,605.5C 184.311,606.429 182.978,606.762 181.5,606.5C 181.34,604.801 181.506,603.134 182,601.5C 189.024,592.318 196.19,583.318 203.5,574.5 Z"/></g>
<g><path style="opacity:1" fill="#2d1939" d="M 210.5,588.5 C 212.26,595.261 213.26,602.261 213.5,609.5C 211.74,602.739 210.74,595.739 210.5,588.5 Z"/></g>
<g><path style="opacity:0.004" fill="#000000" d="M 195.5,618.5 C 196.833,619.167 196.833,619.167 195.5,618.5 Z"/></g>
<g><path style="opacity:0.004" fill="#000000" d="M 194.5,619.5 C 194.833,619.5 195.167,619.5 195.5,619.5C 195.315,620.17 194.981,620.17 194.5,619.5 Z"/></g>
<g><path style="opacity:1" fill="#8346b0" d="M 461.5,825.5 C 462.913,831.064 466.58,833.898 472.5,834C 475.227,840.229 479.893,844.063 486.5,845.5C 490.121,844.118 493.788,843.285 497.5,843C 497.997,855.899 497.997,867.899 497.5,879C 496.333,880.167 495.167,881.333 494,882.5C 494.011,885.437 493.845,888.27 493.5,891C 496.544,891.359 496.878,892.026 494.5,893C 497.619,894.405 500.952,894.905 504.5,894.5C 483.784,897.209 469.951,888.542 463,868.5C 462.051,863.662 460.718,858.995 459,854.5C 458.24,847.45 458.407,840.45 459.5,833.5C 460.255,830.947 460.922,828.28 461.5,825.5 Z"/></g>
<g><path style="opacity:1" fill="#4a285f" d="M 460.5,823.5 C 461.338,823.842 461.672,824.508 461.5,825.5C 460.922,828.28 460.255,830.947 459.5,833.5C 459.342,830.098 459.676,826.764 460.5,823.5 Z"/></g>
<g><path style="opacity:1" fill="#7c4e32" d="M 540.5,841.5 C 540.5,847.5 540.5,853.5 540.5,859.5C 539.679,856.359 539.179,853.025 539,849.5C 538.583,848.244 537.75,847.577 536.5,847.5C 536.67,842.141 537.17,836.808 538,831.5C 539.352,834.72 540.186,838.053 540.5,841.5 Z"/></g>
<g><path style="opacity:1" fill="#8045aa" d="M 533.5,827.5 C 532.087,842.555 530.254,857.555 528,872.5C 526.969,875.798 525.136,878.464 522.5,880.5C 519.315,876.528 520.315,874.195 525.5,873.5C 526.041,871.286 526.374,869.12 526.5,867C 525.601,864.808 524.601,862.642 523.5,860.5C 525.12,858.261 524.787,856.427 522.5,855C 524.49,852.707 526.49,850.374 528.5,848C 527.692,847.692 527.025,847.192 526.5,846.5C 527.953,844.533 528.953,842.367 529.5,840C 529.167,838.333 528.833,836.667 528.5,835C 530.267,832.456 531.934,829.956 533.5,827.5 Z"/></g>
<g><path style="opacity:1" fill="#4c2f1c" d="M 454.5,834.5 C 454.607,832.621 454.107,832.288 453,833.5C 446.861,846.617 439.528,858.95 431,870.5C 425.752,883.662 419.419,896.329 412,908.5C 408.525,920.091 404.359,931.425 399.5,942.5C 399.863,943.183 400.196,943.85 400.5,944.5C 399.5,944.5 398.5,944.5 397.5,944.5C 401.931,932.628 406.098,920.628 410,908.5C 417.288,896.295 423.622,883.628 429,870.5C 437.645,858.713 445.145,846.213 451.5,833C 450.906,832.536 450.239,832.369 449.5,832.5C 454.599,824.197 456.266,824.864 454.5,834.5 Z"/></g>
<g><path style="opacity:1" fill="#a15f3b" d="M 430.5,856.5 C 431.525,856.897 431.692,857.563 431,858.5C 414.251,882.996 400.918,909.329 391,937.5C 390.506,939.134 390.34,940.801 390.5,942.5C 390.53,943.497 390.03,944.164 389,944.5C 387.535,943.67 386.035,943.504 384.5,944C 382.131,946.57 380.131,949.404 378.5,952.5C 378.167,951.667 377.833,950.833 377.5,950C 380.345,939.13 384.179,928.63 389,918.5C 397.076,904.453 405.076,890.453 413,876.5C 418.326,869.344 424.159,862.677 430.5,856.5 Z"/></g>
<g><path style="opacity:1" fill="#482d1b" d="M 440.5,843.5 C 441.357,844.802 441.857,846.135 442,847.5C 439.099,850.312 436.432,853.312 434,856.5C 423.066,875.37 412.399,894.37 402,913.5C 399.21,921.533 396.21,929.533 393,937.5C 392.506,939.134 392.34,940.801 392.5,942.5C 391.833,942.5 391.167,942.5 390.5,942.5C 390.34,940.801 390.506,939.134 391,937.5C 400.918,909.329 414.251,882.996 431,858.5C 431.692,857.563 431.525,856.897 430.5,856.5C 433.864,852.143 437.198,847.809 440.5,843.5 Z"/></g>
<g><path style="opacity:1" fill="#442919" d="M 540.5,841.5 C 541.822,848.382 543.155,855.382 544.5,862.5C 543.842,863.793 543.508,865.293 543.5,867C 545.133,876.756 546.3,886.589 547,896.5C 553.254,918.373 555.42,940.707 553.5,963.5C 552.833,952.833 552.167,942.167 551.5,931.5C 551.021,923.396 549.854,915.396 548,907.5C 546.994,923.152 546.494,938.818 546.5,954.5C 546.666,958.846 546.499,963.179 546,967.5C 545.79,965.942 545.29,964.609 544.5,963.5C 547.081,928.526 545.748,893.859 540.5,859.5C 540.5,853.5 540.5,847.5 540.5,841.5 Z"/></g>
<g><path style="opacity:1" fill="#a4623e" d="M 454.5,834.5 C 452.813,850.384 455.647,865.384 463,879.5C 476.954,900.197 495.121,905.03 517.5,894C 526.453,886.931 531.953,877.764 534,866.5C 535.017,860.182 535.85,853.848 536.5,847.5C 537.75,847.577 538.583,848.244 539,849.5C 539.179,853.025 539.679,856.359 540.5,859.5C 545.748,893.859 547.081,928.526 544.5,963.5C 544.237,971.048 545.071,978.381 547,985.5C 548.779,982.724 549.779,983.057 550,986.5C 551.433,978.953 552.6,971.286 553.5,963.5C 555.42,940.707 553.254,918.373 547,896.5C 546.3,886.589 545.133,876.756 543.5,867C 543.508,865.293 543.842,863.793 544.5,862.5C 549.096,878.508 553.762,894.508 558.5,910.5C 559.509,915.283 560.509,919.95 561.5,924.5C 563.661,942.249 564.994,960.082 565.5,978C 565.67,985.272 565.004,992.439 563.5,999.5C 560.951,998.491 558.285,997.658 555.5,997C 554.833,996.333 554.167,995.667 553.5,995C 549.789,994.825 546.122,994.325 542.5,993.5C 540.903,988.401 537.57,985.234 532.5,984C 530.961,980.456 528.294,978.456 524.5,978C 522.576,974.909 519.91,972.742 516.5,971.5C 515.754,970.264 515.421,968.93 515.5,967.5C 513.5,967.5 511.5,967.5 509.5,967.5C 509.919,964.675 508.919,962.509 506.5,961C 502.959,960.779 499.793,959.612 497,957.5C 494.188,954.688 491.355,951.855 488.5,949C 484.079,949.388 480.745,947.721 478.5,944C 475.671,943.952 473.337,942.952 471.5,941C 465.293,939.461 459.793,940.627 455,944.5C 452.369,942.932 450.203,943.432 448.5,946C 446.623,946.576 444.789,946.409 443,945.5C 441.667,946.167 440.333,946.833 439,947.5C 437.667,946.833 436.333,946.167 435,945.5C 433.667,946.167 432.333,946.833 431,947.5C 425.37,947.115 419.704,947.115 414,947.5C 409.589,946.272 405.089,945.272 400.5,944.5C 400.196,943.85 399.863,943.183 399.5,942.5C 404.359,931.425 408.525,920.091 412,908.5C 419.419,896.329 425.752,883.662 431,870.5C 439.528,858.95 446.861,846.617 453,833.5C 454.107,832.288 454.607,832.621 454.5,834.5 Z"/></g>
<g><path style="opacity:1" fill="#4c311d" d="M 459.5,884.5 C 460.787,885.871 461.453,887.705 461.5,890C 461.333,891.833 461.167,893.667 461,895.5C 457.375,908.036 454.375,920.703 452,933.5C 450.599,935.192 448.766,935.859 446.5,935.5C 445.722,919.237 448.222,903.571 454,888.5C 454.167,889.333 454.333,890.167 454.5,891C 453.061,899.258 451.227,907.424 449,915.5C 448.333,920.833 448.333,926.167 449,931.5C 453.569,916.091 457.069,900.425 459.5,884.5 Z"/></g>
<g><path style="opacity:1" fill="#73472e" d="M 533.5,885.5 C 535.873,890.777 536.873,896.444 536.5,902.5C 535.686,900.369 535.186,898.036 535,895.5C 534.503,898.146 534.336,900.813 534.5,903.5C 533.833,900.833 533.167,898.167 532.5,895.5C 532.833,892.167 533.167,888.833 533.5,885.5 Z"/></g>
<g><path style="opacity:1" fill="#563722" d="M 450.5,869.5 C 451.497,869.47 452.164,869.97 452.5,871C 446.313,893.82 440.646,916.653 435.5,939.5C 434.345,936.554 434.179,933.554 435,930.5C 440.008,910.136 445.174,889.802 450.5,869.5 Z"/></g>
<g><path style="opacity:1" fill="#4a2e1c" d="M 449.5,847.5 C 450.239,847.369 450.906,847.536 451.5,848C 447.893,859.668 444.559,871.501 441.5,883.5C 441.667,884.167 441.833,884.833 442,885.5C 443.34,882.798 444.673,880.131 446,877.5C 446.167,878 446.333,878.5 446.5,879C 442.157,892.582 436.991,905.749 431,918.5C 429.31,923.786 427.81,929.12 426.5,934.5C 425.345,931.554 425.179,928.554 426,925.5C 428.435,916.631 431.435,907.965 435,899.5C 437.856,890.955 439.856,882.288 441,873.5C 435.795,881.911 431.129,890.578 427,899.5C 421.877,913.998 417.377,928.665 413.5,943.5C 413.554,933.401 415.721,923.734 420,914.5C 420.667,913.167 420.667,911.833 420,910.5C 416.165,917.508 411.831,924.174 407,930.5C 413.672,915.777 421.338,901.444 430,887.5C 435.724,873.721 442.224,860.388 449.5,847.5 Z"/></g>
<g><path style="opacity:1" fill="#9f5f3a" d="M 449.5,832.5 C 450.239,832.369 450.906,832.536 451.5,833C 445.145,846.213 437.645,858.713 429,870.5C 423.622,883.628 417.288,896.295 410,908.5C 406.098,920.628 401.931,932.628 397.5,944.5C 397.5,946.167 397.5,947.833 397.5,949.5C 396.5,949.5 395.5,949.5 394.5,949.5C 394.834,946.812 394.168,944.479 392.5,942.5C 392.34,940.801 392.506,939.134 393,937.5C 396.21,929.533 399.21,921.533 402,913.5C 412.399,894.37 423.066,875.37 434,856.5C 436.432,853.312 439.099,850.312 442,847.5C 441.857,846.135 441.357,844.802 440.5,843.5C 443.122,839.543 446.122,835.876 449.5,832.5 Z"/></g>
<g><path style="opacity:1" fill="#52351e" d="M 464.5,891.5 C 465.147,892.274 465.48,893.274 465.5,894.5C 463.821,905.4 461.321,916.066 458,926.5C 459.333,914.803 461.5,903.137 464.5,891.5 Z"/></g>
<g><path style="opacity:1" fill="#50301d" d="M 533.5,885.5 C 533.167,888.833 532.833,892.167 532.5,895.5C 531.749,911.853 530.582,928.186 529,944.5C 528.105,953.244 526.772,961.911 525,970.5C 524.667,970.833 524.333,971.167 524,971.5C 525.854,948.216 527.52,924.882 529,901.5C 530.565,895.937 531.731,890.27 532.5,884.5C 533.107,884.624 533.44,884.957 533.5,885.5 Z"/></g>
<g><path style="opacity:1" fill="#4e2d19" d="M 499.5,915.5 C 500.97,918.886 501.637,922.553 501.5,926.5C 501.344,931.901 500.678,937.234 499.5,942.5C 498.318,933.497 498.318,924.497 499.5,915.5 Z"/></g>
<g><path style="opacity:1" fill="#5d361f" d="M 479.5,901.5 C 480.828,906.456 481.495,911.789 481.5,917.5C 481.167,922.833 480.833,928.167 480.5,933.5C 478.265,922.9 477.932,912.233 479.5,901.5 Z"/></g>
<g><path style="opacity:1" fill="#6d422c" d="M 558.5,910.5 C 560.956,914.738 561.956,919.404 561.5,924.5C 560.509,919.95 559.509,915.283 558.5,910.5 Z"/></g>
<g><path style="opacity:1" fill="#a0603e" d="M 551.5,931.5 C 552.068,946.926 551.235,962.259 549,977.5C 548.667,978.167 548.333,978.833 548,979.5C 547.829,970.99 547.329,962.657 546.5,954.5C 546.494,938.818 546.994,923.152 548,907.5C 549.854,915.396 551.021,923.396 551.5,931.5 Z"/></g>
<g><path style="opacity:1" fill="#573722" d="M 471.5,900.5 C 472.268,911.428 471.435,922.428 469,933.5C 468.065,922.318 468.898,911.318 471.5,900.5 Z"/></g>
<g><path style="opacity:1" fill="#663c25" d="M 511.5,903.5 C 512.239,903.369 512.906,903.536 513.5,904C 512.299,904.903 511.465,906.069 511,907.5C 510.5,922.83 510.333,938.163 510.5,953.5C 509.5,953.5 508.5,953.5 507.5,953.5C 507.167,938.152 507.501,922.819 508.5,907.5C 509.524,906.148 510.524,904.815 511.5,903.5 Z"/></g>
<g><path style="opacity:1" fill="#4a2b18" d="M 517.5,908.5 C 518.83,914.966 519.497,921.799 519.5,929C 519.333,935.833 519.167,942.667 519,949.5C 518.886,954.324 518.053,958.99 516.5,963.5C 516.167,962.167 515.833,960.833 515.5,959.5C 517.069,942.538 517.735,925.538 517.5,908.5 Z"/></g>
<g><path style="opacity:1" fill="#6d4128" d="M 486.5,911.5 C 488.268,915.044 489.102,919.044 489,923.5C 490.036,920.247 490.703,916.914 491,913.5C 492.103,915.629 492.603,917.963 492.5,920.5C 492.333,922.5 492.167,924.5 492,926.5C 489.597,931.303 487.764,936.303 486.5,941.5C 485.452,931.506 485.452,921.506 486.5,911.5 Z"/></g>
<g><path style="opacity:1" fill="#774629" d="M 536.5,907.5 C 538.02,915.947 538.687,924.613 538.5,933.5C 538.5,939.676 538.166,945.676 537.5,951.5C 537.661,936.817 537.328,922.151 536.5,907.5 Z"/></g>
<g><path style="opacity:1" fill="#4c2d1b" d="M 536.5,902.5 C 536.5,904.167 536.5,905.833 536.5,907.5C 537.328,922.151 537.661,936.817 537.5,951.5C 537.263,961.612 536.096,971.612 534,981.5C 534.033,965.495 534.533,949.495 535.5,933.5C 535.278,923.493 534.944,913.493 534.5,903.5C 534.336,900.813 534.503,898.146 535,895.5C 535.186,898.036 535.686,900.369 536.5,902.5 Z"/></g>
<g><path style="opacity:0.004" fill="#000000" d="M 504.5,966.5 C 503.833,967.167 503.833,967.167 504.5,966.5 Z"/></g>
<g><path style="opacity:1" fill="#563420" d="M 551.5,931.5 C 552.167,942.167 552.833,952.833 553.5,963.5C 552.6,971.286 551.433,978.953 550,986.5C 549.779,983.057 548.779,982.724 547,985.5C 545.071,978.381 544.237,971.048 544.5,963.5C 545.29,964.609 545.79,965.942 546,967.5C 546.499,963.179 546.666,958.846 546.5,954.5C 547.329,962.657 547.829,970.99 548,979.5C 548.333,978.833 548.667,978.167 549,977.5C 551.235,962.259 552.068,946.926 551.5,931.5 Z"/></g>
</svg>
