<?xml version="1.0" encoding="UTF-8"?>
<svg id="Layer_1" xmlns="http://www.w3.org/2000/svg" version="1.1" xmlns:xlink="http://www.w3.org/1999/xlink" viewBox="0 0 200 200">
  <!-- Generator: Adobe Illustrator 29.5.1, SVG Export Plug-In . SVG Version: 2.1.0 Build 141)  -->
  <defs>
    <style>
      .st0 {
        fill: url(#linear-gradient);
        fill-rule: evenodd;
      }
    </style>
    <linearGradient id="linear-gradient" x1="185.99" y1="188.42" x2="13.76" y2="16.18" gradientTransform="translate(0 202) scale(1 -1)" gradientUnits="userSpaceOnUse">
      <stop offset="0" stop-color="#8e5ea7"/>
      <stop offset=".7" stop-color="#6c5ea9"/>
    </linearGradient>
  </defs>
  <path class="st0" d="M47.59,75.66h28.62v-28.62c0-15.8-12.8-28.61-28.6-28.61,0,0-.01,0-.02,0-15.8,0-28.61,12.8-28.61,28.6,0,0,0,.02,0,.03,0,15.81,12.96,28.62,28.61,28.62h0ZM95.34,152.02v-28.62h57.23c15.8,0,28.61,12.79,28.62,28.59v.03c0,15.8-12.8,28.61-28.6,28.61h-.02c-15.8,0-28.61-12.79-28.62-28.59v-19.15h-19.12v19.12c0,26.25,21.34,47.59,47.59,47.59s47.59-21.34,47.59-47.59-21.34-47.59-47.59-47.59h-57.23v-9.49h57.23c26.24,0,47.59-21.34,47.59-47.59S178.66-.39,152.41-.39s-47.59,21.34-47.59,47.59v19.13h19.12v-19.12c-.01-15.8,12.79-28.61,28.59-28.62.01,0,.02,0,.04,0,15.8,0,28.61,12.8,28.61,28.6,0,0,0,.02,0,.02,0,15.8-12.8,28.61-28.6,28.61,0,0-.01,0-.02,0h-57.23v-28.62c0-26.24-21.34-47.59-47.75-47.59C21.33-.42.03,20.84,0,47.09c0,.03,0,.07,0,.1C0,73.44,21.34,94.79,47.59,94.79h28.62v9.48h-28.62C21.33,104.24.03,125.5,0,151.76c0,.03,0,.07,0,.1C0,178.11,21.34,199.61,47.59,199.61s47.75-21.34,47.75-47.59ZM19.13,152.02c0,15.8,12.8,28.61,28.6,28.61h.02c15.8,0,28.61-12.8,28.61-28.6h0v-28.63h-28.61c-15.8-.01-28.61,12.79-28.62,28.59,0,.01,0,.02,0,.03h0Z"/>
</svg>