<svg width="160" height="160" viewBox="0 0 160 160" fill="none" xmlns="http://www.w3.org/2000/svg">
<path fill-rule="evenodd" clip-rule="evenodd" d="M64 21C69.5228 21 74 25.4772 74 31V41C74 46.5228 69.5228 51 64 51C58.4772 51 54 46.5228 54 41V31C54 25.4772 58.4772 21 64 21Z" fill="#B68AFF"/>
<path fill-rule="evenodd" clip-rule="evenodd" d="M94 46C88.4772 46 84 41.5228 84 36V26C84 20.4772 88.4772 16 94 16C99.5228 16 104 20.4772 104 26V36C104 41.5228 99.5228 46 94 46Z" fill="#B68AFF"/>
<path fill-rule="evenodd" clip-rule="evenodd" d="M124 10C129.523 10 134 14.4772 134 20V42C134 47.5228 129.523 52 124 52C118.477 52 114 47.5228 114 42V20C114 14.4772 118.477 10 124 10Z" fill="#B68AFF"/>
<path fill-rule="evenodd" clip-rule="evenodd" d="M34 60C17.4315 60 4 73.4315 4 90C4 106.569 17.4315 120 34 120H36.5606C42.7381 137.478 59.4067 150 79 150H110C134.853 150 155 129.853 155 105V70C155 64.4772 150.523 60 145 60H34ZM34 80C28.4772 80 24 84.4772 24 90C24 95.5229 28.4772 100 34 100V80ZM54 105V80H135V105C135 118.807 123.807 130 110 130H79C65.1929 130 54 118.807 54 105Z" fill="#B68AFF"/>
</svg>