<?xml version="1.0" encoding="UTF-8"?>
<svg id="Layer_1" xmlns="http://www.w3.org/2000/svg" version="1.1" viewBox="0 0 1000 1000">
  <!-- Generator: Adobe Illustrator 29.5.1, SVG Export Plug-In . SVG Version: 2.1.0 Build 141)  -->
  <defs>
    <style>
      .st0 {
        fill: #fff;
      }
    </style>
  </defs>
  <path class="st0" d="M532.93,1.03C231.49-18.09-18,231.4,1.12,532.84c15.68,248.99,217.14,450.45,466.13,466.13,301.44,19.12,550.93-230.37,531.81-531.81C982.88,218.17,781.92,17.21,532.93,1.03ZM401.57,912.7c-25.49-5.88-49.99-14.21-73.03-25-12.74-5.88-15.68-22.06-5.88-32.35l289.68-292.13c34.8-35.29,34.8-92.64,0-127.93L322.66,143.17c-9.8-9.8-6.86-26.47,5.88-32.35,23.53-10.29,48.03-18.63,73.03-25,25-6.37,13.72.49,18.63,5.39l267.13,269.58c74.99,75.97,74.99,199.98,0,275.95l-267.62,269.58c-4.9,4.9-11.76,6.86-18.63,5.39l.49.98ZM80.03,439.71c5.39-37.74,15.68-74.01,30.39-107.83,14.7-33.82,22.55-16.17,32.35-5.88l100.97,102.44c12.25,12.74,3.43,33.82-14.21,33.82H99.15c-11.76,0-21.57-10.78-19.61-22.55h.49ZM243.74,571.56l-101.46,102.44c-9.8,9.8-26.96,6.86-32.35-5.88-14.7-33.82-25-70.09-30.39-107.83-5.39-37.74,7.84-22.55,19.61-22.55h130.38c17.65,0,26.47,21.08,14.21,33.82ZM177.08,746.54l229.88-232.82c7.84-7.84,7.84-20.1,0-27.94l-229.88-232.82c-7.35-7.35-7.84-19.12-.98-26.96,14.7-17.16,30.88-33.33,48.03-48.52,17.16-15.19,19.61-6.37,26.96.98l307.81,309.77c5.88,5.88,5.88,15.68,0,21.57l-307.81,310.26c-7.35,7.35-19.12,7.84-26.96.98-17.16-14.7-33.33-30.88-48.03-48.52-14.7-17.65-5.88-19.61.98-26.96v.98ZM550.08,921.53c-14.21,1.47-22.55-15.19-12.25-25.49l203.41-204.88c103.91-105.38,103.91-276.93,0-382.31l-203.41-204.88c-9.8-9.8-1.47-26.96,12.25-25.49,210.76,25,374.47,204.39,374.47,421.53s-163.71,396.53-374.47,421.53Z"/>
</svg>